<svg xmlns="http://www.w3.org/2000/svg" width="290" height="253" viewBox="0 0 290 253">
  <defs>
    <style>
      .cls-1, .cls-2 {
        fill: #fff;
      }

      .cls-1 {
        fill-rule: evenodd;
      }
    </style>
  </defs>
  <path id="Forma_7" data-name="Forma 7" class="cls-1" d="M250,107s30.957,36.675,10,78c3.4,4.529,20.035-2.6,24-6a15.977,15.977,0,0,0,6-13c0-6.793-10.168-53.17-13-56s-4.168-3.434-7-4S250,107,250,107Z"/>
  <path id="Forma_7_copia" data-name="Forma 7 copia" class="cls-1" d="M40.469,107s-30.957,36.675-10,78c-3.4,4.529-20.035-2.6-24-6a15.976,15.976,0,0,1-6-13c0-6.793,10.168-53.17,13-56s4.168-3.434,7-4S40.469,107,40.469,107Z"/>
  <path id="Forma_8" data-name="Forma 8" class="cls-1" d="M146,0c-21.729,0-15.857,25.565-6,26V49H125.856C123.605,49,122,53,122,53V67S37.133,83.408,36,157s77.151,96,111,96,109-23.974,109-97-87-89-87-89V53s-1.882-4-4.394-4H152V26C161.7,26,165.722,0,146,0ZM46,159c0-55.677,51.391-69.091,101-69,52.934,0.1,99.592,17.219,99,69C244.794,264.39,46,264.466,46,159Z"/>
  <circle id="Elipse_2" data-name="Elipse 2" class="cls-2" cx="102" cy="159" r="25"/>
  <circle id="Elipse_2_copia" data-name="Elipse 2 copia" class="cls-2" cx="186" cy="159" r="25"/>
</svg>
