<?xml version="1.0" encoding="UTF-8"?>
<svg version="1.1" xmlns="http://www.w3.org/2000/svg" width="160" height="104">
<path d="M0 0 C0 0.66 0 1.32 0 2 C0.56203125 2.09410156 1.1240625 2.18820312 1.703125 2.28515625 C4.56531831 3.1759409 6.39770461 4.58871882 8.75 6.4375 C9.54921875 7.05496094 10.3484375 7.67242188 11.171875 8.30859375 C11.77515625 8.86675781 12.3784375 9.42492187 13 10 C13 10.66 13 11.32 13 12 C13.57105469 12.22816406 14.14210937 12.45632812 14.73046875 12.69140625 C22.44170535 17.13764422 31.16819658 29.69289242 33.65234375 38.24609375 C33.9375 40.1875 33.9375 40.1875 34 43 C34.66 43 35.32 43 36 43 C39.68303803 53.44304455 40.22051337 63.48008999 39.75 74.4375 C39.71156982 75.37271484 39.67313965 76.30792969 39.63354492 77.27148438 C39.33695226 82.68879057 38.54541606 86.5910438 37 92 C-12.5 92 -62 92 -113 92 C-116.46240917 73.53381778 -116.46240917 73.53381778 -116.25 66.75 C-116.24226563 65.69232422 -116.24226563 65.69232422 -116.234375 64.61328125 C-116.1836219 61.25723248 -115.94184524 58.21853588 -115 55 C-114.5130583 52.2543035 -114.05298515 49.50501112 -113.59765625 46.75390625 C-113.00026369 44.00121504 -112.11897582 41.57973085 -111 39 C-110.34 39 -109.68 39 -109 39 C-108.979375 38.071875 -108.95875 37.14375 -108.9375 36.1875 C-107.93025745 28.92942867 -102.38276901 21.73905643 -97 17 C-96.34 17 -95.68 17 -95 17 C-94.67 16.01 -94.34 15.02 -94 14 C-93.34 14 -92.68 14 -92 14 C-92 13.01 -92 12.02 -92 11 C-86.76744186 6 -86.76744186 6 -83 6 C-83 5.34 -83 4.68 -83 4 C-77.76457544 -0.29948274 -71.31427516 -2.76007364 -65 -5 C-64.21882813 -5.2784375 -63.43765625 -5.556875 -62.6328125 -5.84375 C-60.10641569 -6.67207682 -57.58044414 -7.35954345 -55 -8 C-54.05511719 -8.24234375 -53.11023438 -8.4846875 -52.13671875 -8.734375 C-34.5229302 -12.261434 -15.61590699 -8.49449486 0 0 Z M-55 -4 C-54.48455373 -0.18569761 -53.79433828 1.42061082 -51 4 C-50.484375 4.86625 -49.96875 5.7325 -49.4375 6.625 C-48.22087094 9.11190375 -48.22087094 9.11190375 -46 10 C-45.16013916 8.06532058 -44.32831973 6.12714871 -43.5 4.1875 C-43.0359375 3.10855469 -42.571875 2.02960937 -42.09375 0.91796875 C-40.82450697 -1.94882024 -40.82450697 -1.94882024 -41 -5 C-45.78025483 -5.11950637 -50.27616037 -4.65156409 -55 -4 Z M-37 -5 C-35.02 0.61 -33.04 6.22 -31 12 C-33.31 12 -35.62 12 -38 12 C-38 12.33 -38 12.66 -38 13 C-35.25038489 13.94607807 -35.25038489 13.94607807 -32 14 C-28.31485002 11.1523841 -26.39150143 8.42750456 -25 4 C-24.34 4 -23.68 4 -23 4 C-20.68407978 0.77885843 -20.68407978 0.77885843 -20 -3 C-25.71835109 -5.47280047 -30.87429131 -5.14940753 -37 -5 Z M-66 -0.125 C-66.9075 0.22304687 -67.815 0.57109375 -68.75 0.9296875 C-71.15082815 1.78866495 -71.15082815 1.78866495 -72 4 C-70.96463216 5.23447704 -69.92130607 6.46228012 -68.875 7.6875 C-68.29492188 8.37199219 -67.71484375 9.05648438 -67.1171875 9.76171875 C-64.62598695 12.39540494 -61.78498843 14.67917631 -59 17 C-59.33 10.73 -59.66 4.46 -60 -2 C-62.06602121 -2 -64.10877605 -0.86107296 -66 -0.125 Z M-16 -1 C-16.16831775 1.41656194 -16.33471262 3.83323049 -16.5 6.25 C-16.54769531 6.93191406 -16.59539062 7.61382812 -16.64453125 8.31640625 C-16.86478719 11.55731503 -17 14.7493366 -17 18 C-16.34 18 -15.68 18 -15 18 C-14.7525 17.38125 -14.505 16.7625 -14.25 16.125 C-12.79371361 13.64931313 -11.62187494 13.04874998 -9 12 C-9 11.34 -9 10.68 -9 10 C-8.34 10 -7.68 10 -7 10 C-7 9.34 -7 8.68 -7 8 C-6.195625 7.71125 -5.39125 7.4225 -4.5625 7.125 C-1.8673532 6.26737432 -1.8673532 6.26737432 -1 4 C-2.55575978 3.15415002 -4.1199612 2.32381601 -5.6875 1.5 C-6.55761719 1.0359375 -7.42773438 0.571875 -8.32421875 0.09375 C-11.11788829 -1.04818792 -13.01629113 -1.21504208 -16 -1 Z M-80.4375 7.75 C-81.24058594 8.26046875 -82.04367188 8.7709375 -82.87109375 9.296875 C-85.08574751 11.06859801 -85.96327726 12.39403028 -87 15 C-86.45730469 15.26554687 -85.91460937 15.53109375 -85.35546875 15.8046875 C-84.28232422 16.33449219 -84.28232422 16.33449219 -83.1875 16.875 C-82.47980469 17.22304688 -81.77210937 17.57109375 -81.04296875 17.9296875 C-79 19 -79 19 -76 21 C-75.01 21 -74.02 21 -73 21 C-73.57021934 15.6496441 -74.20734361 10.32212148 -75 5 C-77.00882299 5 -78.8169227 6.70245883 -80.4375 7.75 Z M1 6 C0.34956281 7.72744016 -0.29514844 9.4570369 -0.9375 11.1875 C-1.29714844 12.15042969 -1.65679687 13.11335938 -2.02734375 14.10546875 C-2.91156562 16.7368278 -3.52568586 19.26894908 -4 22 C-5.32 22.33 -6.64 22.66 -8 23 C-5.32752366 25.34287418 -5.32752366 25.34287418 -2 26 C-1.67 25.01 -1.34 24.02 -1 23 C1.72265625 21.39453125 1.72265625 21.39453125 5.0625 19.8125 C6.16722656 19.28269531 7.27195312 18.75289062 8.41015625 18.20703125 C9.26480469 17.80871094 10.11945313 17.41039062 11 17 C11.31161817 14.00973251 11.31161817 14.00973251 9.57421875 12.2109375 C8.95160156 11.60507812 8.32898438 10.99921875 7.6875 10.375 C7.07261719 9.76398437 6.45773438 9.15296875 5.82421875 8.5234375 C3.97125411 6.78742971 3.97125411 6.78742971 1 6 Z M-47 11 C-46.67 11.99 -46.34 12.98 -46 14 C-44.02 13.67 -42.04 13.34 -40 13 C-40 12.67 -40 12.34 -40 12 C-42.31 11.67 -44.62 11.34 -47 11 Z M-21 15 C-20.34 15.66 -19.68 16.32 -19 17 C-19 16.34 -19 15.68 -19 15 C-19.66 15 -20.32 15 -21 15 Z M-91 17 C-92.4302165 18.44744802 -93.79721162 19.9580522 -95.125 21.5 C-95.84945312 22.3353125 -96.57390625 23.170625 -97.3203125 24.03125 C-97.87460938 24.6809375 -98.42890625 25.330625 -99 26 C-98.67 26.99 -98.34 27.98 -98 29 C-95.54356688 30.03381541 -95.54356688 30.03381541 -92.625 30.6875 C-91.64789063 30.93886719 -90.67078125 31.19023438 -89.6640625 31.44921875 C-86.96375545 32.10123158 -86.96375545 32.10123158 -84 32 C-85.39038565 26.86626838 -87.08460953 21.96260257 -89 17 C-89.66 17 -90.32 17 -91 17 Z M14 18 C12.96966118 20.12040742 11.95097146 22.24647908 10.9375 24.375 C10.36902344 25.55835938 9.80054688 26.74171875 9.21484375 27.9609375 C8.61349609 29.46527344 8.61349609 29.46527344 8 31 C8.33 31.66 8.66 32.32 9 33 C11.31452922 32.5520266 13.62660039 32.09133539 15.9375 31.625 C17.22527344 31.36976562 18.51304687 31.11453125 19.83984375 30.8515625 C20.88269531 30.57054687 21.92554688 30.28953125 23 30 C23.33 29.34 23.66 28.68 24 28 C23.67 27.34 23.34 26.68 23 26 C22.34 26 21.68 26 21 26 C20.731875 25.236875 20.46375 24.47375 20.1875 23.6875 C19.04865495 21.11011382 18.18583329 19.73045136 16 18 C15.34 18 14.68 18 14 18 Z M-30 20 C-33.11325012 22.55446164 -33.91294485 25.20227933 -35.0625 29 C-36.12449975 32.48028835 -36.96964572 34.95446858 -39 38 C-41.88916016 38.70776367 -41.88916016 38.70776367 -45.5390625 39.16796875 C-46.84101562 39.33876953 -48.14296875 39.50957031 -49.484375 39.68554688 C-50.86454829 39.85315339 -52.24475714 40.02046733 -53.625 40.1875 C-55.0131785 40.36530981 -56.40120234 40.54433165 -57.7890625 40.72460938 C-61.19137145 41.16171157 -64.59478188 41.58627896 -68 42 C-68 42.66 -68 43.32 -68 44 C-69.65 44.66 -71.3 45.32 -73 46 C-72.67 46.66 -72.34 47.32 -72 48 C-71.01 48 -70.02 48 -69 48 C-67.02 51.96 -65.04 55.92 -63 60 C-62.34 60 -61.68 60 -61 60 C-61 60.66 -61 61.32 -61 62 C-60.01 61.505 -60.01 61.505 -59 61 C-59.33 59.35 -59.66 57.7 -60 56 C-58.02 56.66 -56.04 57.32 -54 58 C-54 56.68 -54 55.36 -54 54 C-53.13375 54.433125 -52.2675 54.86625 -51.375 55.3125 C-50.26125 55.539375 -49.1475 55.76625 -48 56 C-44.84151217 53.67348492 -44.84151217 53.67348492 -42 51 C-40.68 51 -39.36 51 -38 51 C-37.505 52.485 -37.505 52.485 -37 54 C-35.02 54 -33.04 54 -31 54 C-31.495 52.02 -31.495 52.02 -32 50 C-31.175 49.54625 -30.35 49.0925 -29.5 48.625 C-28.675 48.08875 -27.85 47.5525 -27 47 C-27 46.34 -27 45.68 -27 45 C-27.66 45 -28.32 45 -29 45 C-28.88597936 42.72858891 -28.75841495 40.45785448 -28.625 38.1875 C-28.55539063 36.92292969 -28.48578125 35.65835938 -28.4140625 34.35546875 C-28 31 -28 31 -26 28 C-22.375 27.8125 -22.375 27.8125 -19 28 C-19.10613836 25.54775306 -19.10613836 25.54775306 -20 23 C-22.47636012 21.62533375 -22.47636012 21.62533375 -25 21 C-25 21.66 -25 22.32 -25 23 C-25.66 23.33 -26.32 23.66 -27 24 C-27 23.01 -27 22.02 -27 21 C-27.99 20.67 -28.98 20.34 -30 20 Z M-11 20 C-10.67 20.66 -10.34 21.32 -10 22 C-9.34 21.67 -8.68 21.34 -8 21 C-8.99 20.67 -9.98 20.34 -11 20 Z M-73 21 C-73 21.99 -73 22.98 -73 24 C-72.34 24 -71.68 24 -71 24 C-71.33 23.01 -71.66 22.02 -72 21 C-72.33 21 -72.66 21 -73 21 Z M-1 28 C-0.67 28.66 -0.34 29.32 0 30 C0.66 29.67 1.32 29.34 2 29 C1.01 28.67 0.02 28.34 -1 28 Z M-103 31 C-103.67354499 32.43429001 -104.33859701 33.87257057 -105 35.3125 C-105.37125 36.11300781 -105.7425 36.91351563 -106.125 37.73828125 C-107.18040667 40.06213959 -107.18040667 40.06213959 -107 43 C-103.48190508 44.75904746 -99.21893715 44.3700587 -95.32226562 44.51757812 C-93.5432531 44.60903076 -91.76979376 44.79731996 -90 45 C-89.67 45.66 -89.34 46.32 -89 47 C-88.67 45.35 -88.34 43.7 -88 42 C-88.33 42.66 -88.66 43.32 -89 44 C-90.32 43.67 -91.64 43.34 -93 43 C-93.15855469 42.14148438 -93.15855469 42.14148438 -93.3203125 41.265625 C-94.10601348 38.64662173 -95.24533132 36.93910718 -96.875 34.75 C-97.38804688 34.04359375 -97.90109375 33.3371875 -98.4296875 32.609375 C-98.94789062 32.07828125 -99.46609375 31.5471875 -100 31 C-100.99 31 -101.98 31 -103 31 Z M-84 32 C-83.34 32.66 -82.68 33.32 -82 34 C-81.67 33.34 -81.34 32.68 -81 32 C-81.99 32 -82.98 32 -84 32 Z M6 33 C5.67 33.66 5.34 34.32 5 35 C5.66 35 6.32 35 7 35 C6.67 34.34 6.34 33.68 6 33 Z M22.17578125 34.4609375 C21.25345703 35.40839844 21.25345703 35.40839844 20.3125 36.375 C19.37857422 37.31472656 19.37857422 37.31472656 18.42578125 38.2734375 C16.78775127 39.88382994 16.78775127 39.88382994 17 42 C16.34 42 15.68 42 15 42 C14.67 42.99 14.34 43.98 14 45 C19.61 45.33 25.22 45.66 31 46 C30.17643483 40.77097979 30.17643483 40.77097979 28.4375 36.125 C27.963125 35.09375 27.48875 34.0625 27 33 C24.00075191 32.68744869 24.00075191 32.68744869 22.17578125 34.4609375 Z M11 43 C11.33 43.99 11.66 44.98 12 46 C12.66 45.67 13.32 45.34 14 45 C13.01 44.34 12.02 43.68 11 43 Z M-109 47 C-111.10318672 52.32807302 -111.54065039 57.33468819 -112 63 C-106.72 61.68 -101.44 60.36 -96 59 C-99.48859547 53.18567421 -102.39273944 49.0765676 -109 47 Z M-27 47 C-26.01 47.99 -25.02 48.98 -24 50 C-23.67 49.34 -23.34 48.68 -23 48 C-24.32 47.67 -25.64 47.34 -27 47 Z M29 50 C29 50.66 29 51.32 29 52 C28.071875 52.28875 27.14375 52.5775 26.1875 52.875 C22.90208333 53.8875 22.90208333 53.8875 20 56 C20 56.66 20 57.32 20 58 C19.01 58 18.02 58 17 58 C16.67 57.34 16.34 56.68 16 56 C16 57.65 16 59.3 16 61 C16.66 60.67 17.32 60.34 18 60 C20.33498858 60.66084583 22.66816393 61.32811503 25 62 C27.79244045 62.16928543 27.79244045 62.16928543 30 62 C30 62.66 30 63.32 30 64 C31.98 64.33 33.96 64.66 36 65 C34.515 56.585 34.515 56.585 33 48 C31.53774984 47.90754997 31.53774984 47.90754997 29 50 Z M15 53 C16 56 16 56 16 56 Z M-31 54 C-29.68 54.99 -28.36 55.98 -27 57 C-27.33 56.01 -27.66 55.02 -28 54 C-28.99 54 -29.98 54 -31 54 Z M-94 58 C-93 61 -93 61 -93 61 Z M-54 58 C-53.67 58.99 -53.34 59.98 -53 61 C-53 60.01 -53 59.02 -53 58 C-53.33 58 -53.66 58 -54 58 Z M17 63 C17 64.65 17 66.3 17 68 C17.33 68 17.66 68 18 68 C18 66.35 18 64.7 18 63 C17.67 63 17.34 63 17 63 Z M-112 65 C-112.05429278 67.70860665 -112.09381211 70.41610901 -112.125 73.125 C-112.14175781 73.88554688 -112.15851563 74.64609375 -112.17578125 75.4296875 C-112.21546246 80.03270731 -111.75907577 83.66464004 -110 88 C-107.03 88 -104.06 88 -101 88 C-101.33 87.34 -101.66 86.68 -102 86 C-101.0390625 83.50390625 -101.0390625 83.50390625 -99.625 80.5625 C-98.26442584 77.70833464 -97.00046373 75.00139119 -96 72 C-99.86857033 69.50154833 -102.75738615 67.81675728 -107.375 67.375 C-108.57125 67.25125 -109.7675 67.1275 -111 67 C-111.33 66.34 -111.66 65.68 -112 65 Z M28.625 68.3125 C27.64789063 68.55613281 26.67078125 68.79976563 25.6640625 69.05078125 C22.99040474 70.00341884 21.77976854 70.83885249 20 73 C21.63958758 78.23272633 23.38952035 83.15196636 26 88 C28.64 88 31.28 88 34 88 C34.78688445 85.22276075 35.11949924 82.77389923 35.09765625 79.890625 C35.09443359 79.13652344 35.09121094 78.38242188 35.08789062 77.60546875 C35.07951172 76.82816406 35.07113281 76.05085938 35.0625 75.25 C35.05798828 74.45722656 35.05347656 73.66445312 35.04882812 72.84765625 C35.03708565 70.89840492 35.01915146 68.94919262 35 67 C32.84937735 67 30.68966711 67.78414031 28.625 68.3125 Z M17 69 C18 71 18 71 18 71 Z M-93 72 C-92.27467453 74.90130187 -91.49882535 77.48132518 -90.4375 80.25 C-90.03337891 81.30960938 -90.03337891 81.30960938 -89.62109375 82.390625 C-89.41613281 82.92171875 -89.21117187 83.4528125 -89 84 C-88.01 84 -87.02 84 -86 84 C-85.3291288 82.3767313 -84.66342971 80.75132422 -84 79.125 C-83.62875 78.22007813 -83.2575 77.31515625 -82.875 76.3828125 C-81.88509774 74.11016142 -81.88509774 74.11016142 -82 72 C-85.63 72 -89.26 72 -93 72 Z M-79 72 C-78.27467453 74.90130187 -77.49882535 77.48132518 -76.4375 80.25 C-76.03337891 81.30960938 -76.03337891 81.30960938 -75.62109375 82.390625 C-75.41613281 82.92171875 -75.21117187 83.4528125 -75 84 C-71.9814432 83.3387942 -71.9814432 83.3387942 -70.9375 81.375 C-69.72635249 78.30675963 -68.85701913 75.18321392 -68 72 C-71.63 72 -75.26 72 -79 72 Z M-65 72 C-63.85814266 76.47959418 -62.56984833 80.14522751 -60 84 C-57.27042661 81.64264116 -56.11106604 79.41866474 -55 76 C-55 75.01 -55 74.02 -55 73 C-56.00836062 71.76732652 -56.00836062 71.76732652 -58.06640625 71.90234375 C-59.30197266 71.91974609 -59.30197266 71.91974609 -60.5625 71.9375 C-61.80193359 71.95103516 -61.80193359 71.95103516 -63.06640625 71.96484375 C-64.02353516 71.98224609 -64.02353516 71.98224609 -65 72 Z M-50 72 C-49.45660208 76.56454251 -48.20536179 79.9728176 -46 84 C-42.50071836 81.66714557 -42.3670902 80.79204931 -41.3125 76.875 C-41.06113281 75.96492188 -40.80976562 75.05484375 -40.55078125 74.1171875 C-40.36902344 73.41851562 -40.18726562 72.71984375 -40 72 C-43.3 72 -46.6 72 -50 72 Z M-37 72 C-35.81728024 74.95679939 -34.63512192 77.89130827 -33.375 80.8125 C-32.92125 81.864375 -32.4675 82.91625 -32 84 C-31.34 84 -30.68 84 -30 84 C-29.35242375 82.56328432 -28.70700547 81.12559584 -28.0625 79.6875 C-27.52302734 78.48673828 -27.52302734 78.48673828 -26.97265625 77.26171875 C-25.92153959 74.90510392 -25.92153959 74.90510392 -25 72 C-28.96 72 -32.92 72 -37 72 Z M-21 72 C-22.21386936 75.64160808 -21.6674695 76.33165469 -20.0625 79.6875 C-19.68222656 80.49574219 -19.30195312 81.30398437 -18.91015625 82.13671875 C-18.60980469 82.75160156 -18.30945313 83.36648437 -18 84 C-17.34 84 -16.68 84 -16 84 C-15.30062798 82.5682384 -14.61587282 81.12932968 -13.9375 79.6875 C-13.36322266 78.48673828 -13.36322266 78.48673828 -12.77734375 77.26171875 C-11.70264486 74.87971247 -11.70264486 74.87971247 -13 72 C-15.64 72 -18.28 72 -21 72 Z M-7 72 C-8.13643966 75.40931897 -7.86747764 76.00335456 -6.5625 79.1875 C-6.27503906 79.90292969 -5.98757812 80.61835937 -5.69140625 81.35546875 C-5.46324219 81.89816406 -5.23507813 82.44085938 -5 83 C-3.03326582 82.67000337 -3.03326582 82.67000337 -1 82 C0.87679987 78.62176024 1.21849583 75.82367701 1 72 C-1.64 72 -4.28 72 -7 72 Z M16 71 C11.545 71.495 11.545 71.495 7 72 C7 73.32 7 74.64 7 76 C7 76.66 7 77.32 7 78 C7.66 78 8.32 78 9 78 C9.33 79.98 9.66 81.96 10 84 C10.66 84 11.32 84 12 84 C12.86627399 82.40233897 13.71766465 80.79660056 14.5625 79.1875 C15.03816406 78.29417969 15.51382813 77.40085937 16.00390625 76.48046875 C17.33728333 73.93355424 17.33728333 73.93355424 16 71 Z " fill="#205C4F" transform="translate(119,12)"/>
<path d="M0 0 C5.48512418 0.43880993 8.63175707 1.6763369 13 5 C14.36125 5.9590625 14.36125 5.9590625 15.75 6.9375 C18.19000435 9.17417065 19.04243963 10.86616606 20 14 C20.99 14 21.98 14 23 14 C29.84165934 26.83059013 29.84165934 26.83059013 28.3671875 33.7890625 C27.69037511 37.86433713 28.44839907 41.93512546 29 46 C28.07767578 46.19916016 28.07767578 46.19916016 27.13671875 46.40234375 C26.32847656 46.57894531 25.52023438 46.75554687 24.6875 46.9375 C23.88699219 47.11152344 23.08648437 47.28554687 22.26171875 47.46484375 C19.854599 47.99886159 19.854599 47.99886159 17 49 C15.27204648 49.06802967 13.54164635 49.08495645 11.8125 49.0625 C10.91144531 49.05347656 10.01039062 49.04445312 9.08203125 49.03515625 C8.39496094 49.02355469 7.70789063 49.01195312 7 49 C6.67 48.01 6.34 47.02 6 46 C1.88457649 45.92779959 -1.85344405 45.97906344 -5.9375 46.5625 C-6.948125 46.706875 -7.95875 46.85125 -9 47 C-9.495 46.505 -9.495 46.505 -10 46 C-12.19050021 46.09017996 -14.378466 46.24666208 -16.5625 46.4375 C-17.76003906 46.53933594 -18.95757812 46.64117187 -20.19140625 46.74609375 C-21.11824219 46.82988281 -22.04507813 46.91367188 -23 47 C-23 46.34 -23 45.68 -23 45 C-23.598125 44.9175 -24.19625 44.835 -24.8125 44.75 C-27.65025411 43.77705573 -28.49676067 42.55550687 -30 40 C-30 39.01 -30 38.02 -30 37 C-29.01 37 -28.02 37 -27 37 C-27 36.34 -27 35.68 -27 35 C-28.98 34.67 -30.96 34.34 -33 34 C-33 34.66 -33 35.32 -33 36 C-33.66 36 -34.32 36 -35 36 C-35.33 34.35 -35.66 32.7 -36 31 C-35.278125 30.9175 -34.55625 30.835 -33.8125 30.75 C-30.8412542 30.1732911 -30.8412542 30.1732911 -28.5 27.875 C-26 26 -26 26 -23.1875 26.25 C-22.465625 26.4975 -21.74375 26.745 -21 27 C-21 27.99 -21 28.98 -21 30 C-19.35 29.67 -17.7 29.34 -16 29 C-16 27.68 -16 26.36 -16 25 C-13.6875 23.875 -13.6875 23.875 -11 23 C-10.01 23.66 -9.02 24.32 -8 25 C-8.33 24.67 -8.66 24.34 -9 24 C-9.2165625 23.0409375 -9.2165625 23.0409375 -9.4375 22.0625 C-9.87208918 19.79715153 -9.87208918 19.79715153 -12 18 C-12.125 14.875 -12.125 14.875 -12 12 C-11.34 12 -10.68 12 -10 12 C-9.67 10.35 -9.34 8.7 -9 7 C-6.36 7 -3.72 7 -1 7 C-0.67 4.69 -0.34 2.38 0 0 Z M-15 30 C-13.68 30.99 -12.36 31.98 -11 33 C-11.33 32.01 -11.66 31.02 -12 30 C-12.99 30 -13.98 30 -15 30 Z " fill="#0A6852" transform="translate(103,36)"/>
<path d="M0 0 C0.66 0.66 1.32 1.32 2 2 C-3.445 4.475 -3.445 4.475 -9 7 C-9 7.99 -9 8.98 -9 10 C-8.443125 10.226875 -7.88625 10.45375 -7.3125 10.6875 C-3.28030943 12.97604059 -0.54941401 16.17587898 2 20 C2.99 20.66 3.98 21.32 5 22 C2.03 22.99 -0.94 23.98 -4 25 C-4 25.66 -4 26.32 -4 27 C-9.27938282 30.89847663 -15.03607582 34.25981862 -21 37 C-20.649375 37.53625 -20.29875 38.0725 -19.9375 38.625 C-18.64594137 41.89694852 -18.97407357 43.64864034 -20 47 C-22.375 49.625 -22.375 49.625 -25 52 C-27.61042969 54.96099099 -28.37077542 56.88523846 -28.5625 60.8125 C-28.8712918 65.15488463 -29.65261604 68.86802252 -31 73 C-30.34 73 -29.68 73 -29 73 C-29.226875 73.86625 -29.45375 74.7325 -29.6875 75.625 C-30.06609867 79.71386567 -28.96077038 81.47061332 -27 85 C-27 85.99 -27 86.98 -27 88 C-25.515 88.495 -25.515 88.495 -24 89 C-23.34 89.66 -22.68 90.32 -22 91 C-19.99548879 90.69496569 -17.99551782 90.35919321 -16 90 C-13.625 90.4375 -13.625 90.4375 -12 91 C-12 90.34 -12 89.68 -12 89 C-12.99 88.505 -12.99 88.505 -14 88 C-12.68 88 -11.36 88 -10 88 C-10 88.66 -10 89.32 -10 90 C-9.37351563 89.98839844 -8.74703125 89.97679688 -8.1015625 89.96484375 C-7.28429688 89.95582031 -6.46703125 89.94679688 -5.625 89.9375 C-4.81289063 89.92589844 -4.00078125 89.91429688 -3.1640625 89.90234375 C-1 90 -1 90 1 91 C1.495 89.02 1.495 89.02 2 87 C2.66 87 3.32 87 4 87 C4.38218767 88.65614657 4.71395102 90.32457024 5 92 C4.67 92.33 4.34 92.66 4 93 C5.299375 93.12375 6.59875 93.2475 7.9375 93.375 C10.15234375 93.5859375 10.15234375 93.5859375 12 94 C12.33 94.66 12.66 95.32 13 96 C-8.12 96 -29.24 96 -51 96 C-54.46240917 77.53381778 -54.46240917 77.53381778 -54.25 70.75 C-54.24226563 69.69232422 -54.24226563 69.69232422 -54.234375 68.61328125 C-54.1836219 65.25723248 -53.94184524 62.21853588 -53 59 C-52.5130583 56.2543035 -52.05298515 53.50501112 -51.59765625 50.75390625 C-51.00026369 48.00121504 -50.11897582 45.57973085 -49 43 C-48.34 43 -47.68 43 -47 43 C-46.979375 42.071875 -46.95875 41.14375 -46.9375 40.1875 C-45.93025745 32.92942867 -40.38276901 25.73905643 -35 21 C-34.34 21 -33.68 21 -33 21 C-32.67 20.01 -32.34 19.02 -32 18 C-31.34 18 -30.68 18 -30 18 C-30 17.01 -30 16.02 -30 15 C-24.76744186 10 -24.76744186 10 -21 10 C-21 9.34 -21 8.68 -21 8 C-15.87698367 3.79283017 -6.56396258 -2.18798753 0 0 Z M-18.4375 11.75 C-19.24058594 12.26046875 -20.04367188 12.7709375 -20.87109375 13.296875 C-23.08574751 15.06859801 -23.96327726 16.39403028 -25 19 C-24.45730469 19.26554687 -23.91460937 19.53109375 -23.35546875 19.8046875 C-22.28232422 20.33449219 -22.28232422 20.33449219 -21.1875 20.875 C-20.47980469 21.22304688 -19.77210937 21.57109375 -19.04296875 21.9296875 C-17 23 -17 23 -14 25 C-13.01 25 -12.02 25 -11 25 C-11.57021934 19.6496441 -12.20734361 14.32212148 -13 9 C-15.00882299 9 -16.8169227 10.70245883 -18.4375 11.75 Z M-29 21 C-30.4302165 22.44744802 -31.79721162 23.9580522 -33.125 25.5 C-33.84945312 26.3353125 -34.57390625 27.170625 -35.3203125 28.03125 C-35.87460937 28.6809375 -36.42890625 29.330625 -37 30 C-36.67 30.99 -36.34 31.98 -36 33 C-33.54356688 34.03381541 -33.54356688 34.03381541 -30.625 34.6875 C-29.64789062 34.93886719 -28.67078125 35.19023438 -27.6640625 35.44921875 C-24.96375545 36.10123158 -24.96375545 36.10123158 -22 36 C-23.39038565 30.86626838 -25.08460953 25.96260257 -27 21 C-27.66 21 -28.32 21 -29 21 Z M-11 25 C-11 25.99 -11 26.98 -11 28 C-10.34 28 -9.68 28 -9 28 C-9.33 27.01 -9.66 26.02 -10 25 C-10.33 25 -10.66 25 -11 25 Z M-41 35 C-41.67354499 36.43429001 -42.33859701 37.87257057 -43 39.3125 C-43.37125 40.11300781 -43.7425 40.91351563 -44.125 41.73828125 C-45.18040667 44.06213959 -45.18040667 44.06213959 -45 47 C-41.48190508 48.75904746 -37.21893715 48.3700587 -33.32226562 48.51757812 C-31.5432531 48.60903076 -29.76979376 48.79731996 -28 49 C-27.67 49.66 -27.34 50.32 -27 51 C-26.67 49.35 -26.34 47.7 -26 46 C-26.33 46.66 -26.66 47.32 -27 48 C-28.32 47.67 -29.64 47.34 -31 47 C-31.15855469 46.14148438 -31.15855469 46.14148438 -31.3203125 45.265625 C-32.10601348 42.64662173 -33.24533132 40.93910718 -34.875 38.75 C-35.38804688 38.04359375 -35.90109375 37.3371875 -36.4296875 36.609375 C-36.94789062 36.07828125 -37.46609375 35.5471875 -38 35 C-38.99 35 -39.98 35 -41 35 Z M-47 51 C-49.10318672 56.32807302 -49.54065039 61.33468819 -50 67 C-44.72 65.68 -39.44 64.36 -34 63 C-37.48859547 57.18567421 -40.39273944 53.0765676 -47 51 Z M-32 62 C-31 65 -31 65 -31 65 Z M-50 69 C-50.05429278 71.70860665 -50.09381211 74.41610901 -50.125 77.125 C-50.14175781 77.88554688 -50.15851562 78.64609375 -50.17578125 79.4296875 C-50.21546246 84.03270731 -49.75907577 87.66464004 -48 92 C-45.03 92 -42.06 92 -39 92 C-39.33 91.34 -39.66 90.68 -40 90 C-39.0390625 87.50390625 -39.0390625 87.50390625 -37.625 84.5625 C-36.26442584 81.70833464 -35.00046373 79.00139119 -34 76 C-37.86857033 73.50154833 -40.75738615 71.81675728 -45.375 71.375 C-46.57125 71.25125 -47.7675 71.1275 -49 71 C-49.33 70.34 -49.66 69.68 -50 69 Z " fill="#2B5E50" transform="translate(57,8)"/>
<path d="M0 0 C0 0.66 0 1.32 0 2 C0.56203125 2.09410156 1.1240625 2.18820312 1.703125 2.28515625 C4.56531831 3.1759409 6.39770461 4.58871882 8.75 6.4375 C9.54921875 7.05496094 10.3484375 7.67242188 11.171875 8.30859375 C11.77515625 8.86675781 12.3784375 9.42492187 13 10 C13 10.66 13 11.32 13 12 C13.57105469 12.22816406 14.14210938 12.45632812 14.73046875 12.69140625 C22.44170535 17.13764422 31.16819658 29.69289242 33.65234375 38.24609375 C33.9375 40.1875 33.9375 40.1875 34 43 C34.66 43 35.32 43 36 43 C39.68303803 53.44304455 40.22051337 63.48008999 39.75 74.4375 C39.71156982 75.37271484 39.67313965 76.30792969 39.63354492 77.27148438 C39.33695226 82.68879057 38.54541606 86.5910438 37 92 C9.28 92 -18.44 92 -47 92 C-47.33 91.34 -47.66 90.68 -48 90 C-47.01 90 -46.02 90 -45 90 C-45.33 89.34 -45.66 88.68 -46 88 C-46.99 87.67 -47.98 87.34 -49 87 C-48.34 87 -47.68 87 -47 87 C-46.87625 86.1028125 -46.87625 86.1028125 -46.75 85.1875 C-45.79544128 82.4033704 -44.42867729 81.56688858 -42 80 C-42 81.65 -42 83.3 -42 85 C-40.02 85 -38.04 85 -36 85 C-35.34 83.68 -34.68 82.36 -34 81 C-33.34 81 -32.68 81 -32 81 C-32 81.99 -32 82.98 -32 84 C-31.34 84 -30.68 84 -30 84 C-30 85.32 -30 86.64 -30 88 C-28.41642541 87.68872484 -26.83315007 87.37592711 -25.25 87.0625 C-23.92742187 86.80146484 -23.92742187 86.80146484 -22.578125 86.53515625 C-20.0418993 86.0531871 -20.0418993 86.0531871 -17.796875 85.30859375 C-16.90742187 85.15583984 -16.90742187 85.15583984 -16 85 C-15.01 85.99 -15.01 85.99 -14 87 C-10.91670634 87.17551956 -7.98349475 86.78426425 -5 86 C-3.03712176 84.08261145 -3.03712176 84.08261145 -2 82 C-1.34 82 -0.68 82 0 82 C0 83.32 0 84.64 0 86 C2.97 86 5.94 86 9 86 C9.495 84.515 9.495 84.515 10 83 C10.66 83.33 11.32 83.66 12 84 C12.33 83.34 12.66 82.68 13 82 C13 83.32 13 84.64 13 86 C13.99 86 14.98 86 16 86 C16 86.99 16 87.98 16 89 C17.65 89 19.3 89 21 89 C20.67 88.34 20.34 87.68 20 87 C26.93 87.495 26.93 87.495 34 88 C34 81.4 34 74.8 34 68 C31.36 68.33 28.72 68.66 26 69 C28 67 28 67 35 64 C34.01 59.05 33.02 54.1 32 49 C30.515 49.495 30.515 49.495 29 50 C29 50.66 29 51.32 29 52 C27.02 52.66 25.04 53.32 23 54 C23.33 52.68 23.66 51.36 24 50 C24.66 50 25.32 50 26 50 C25.04134491 47.66924071 25.04134491 47.66924071 22 46 C24.97 46 27.94 46 31 46 C30.40890417 44.03768185 29.80166895 42.0802195 29.1875 40.125 C28.85105469 39.03445312 28.51460938 37.94390625 28.16796875 36.8203125 C27.19339495 33.72701275 27.19339495 33.72701275 24 32 C23.3125 28.875 23.3125 28.875 23 26 C22.34 26 21.68 26 21 26 C19.7109375 24.46875 19.7109375 24.46875 18.375 22.5 C17.92898437 21.8503125 17.48296875 21.200625 17.0234375 20.53125 C16.51683594 19.77328125 16.51683594 19.77328125 16 19 C12.04 19.495 12.04 19.495 8 20 C9 17 9 17 11 15 C9.87811441 13.85111717 8.75238316 12.70598863 7.625 11.5625 C6.99851562 10.92441406 6.37203125 10.28632813 5.7265625 9.62890625 C4.08276939 7.92117824 4.08276939 7.92117824 2 7 C1.67 7.66 1.34 8.32 1 9 C0.34 9 -0.32 9 -1 9 C-1.33 9.66 -1.66 10.32 -2 11 C-2.99 10.67 -3.98 10.34 -5 10 C-5.33 10.66 -5.66 11.32 -6 12 C-6.99 12 -7.98 12 -9 12 C-9 11.34 -9 10.68 -9 10 C-8.34 10 -7.68 10 -7 10 C-7 9.34 -7 8.68 -7 8 C-4.5 6.375 -4.5 6.375 -2 5 C-3.39077301 4.17886823 -4.78788893 3.36847505 -6.1875 2.5625 C-6.96480469 2.11003906 -7.74210937 1.65757813 -8.54296875 1.19140625 C-11.04931977 -0.02391499 -13.25790365 -0.57626575 -16 -1 C-16 1.31 -16 3.62 -16 6 C-16.66 6 -17.32 6 -18 6 C-18.495 3.525 -18.495 3.525 -19 1 C-19.99 1.66 -20.98 2.32 -22 3 C-21.49396008 0.83125748 -21.00016187 -0.99967627 -20 -3 C-25.36095333 -4.12862175 -30.55306686 -4.09688221 -36 -4 C-35.67 -3.34 -35.34 -2.68 -35 -2 C-37.33333333 -2 -39.66666667 -2 -42 -2 C-41.67 -2.99 -41.34 -3.98 -41 -5 C-43.12750156 -4.77226744 -45.25208056 -4.51709182 -47.375 -4.25 C-48.55835937 -4.11078125 -49.74171875 -3.9715625 -50.9609375 -3.828125 C-54.1088608 -3.32388702 -54.1088608 -3.32388702 -55.4140625 -0.921875 C-55.60742188 -0.28765625 -55.80078125 0.3465625 -56 1 C-56.99 -0.32 -57.98 -1.64 -59 -3 C-57.49626101 -6.23882245 -56.70353535 -7.73082126 -53.3046875 -9.03125 C-34.91486615 -11.54466522 -16.33486424 -8.88558189 0 0 Z " fill="#32534B" transform="translate(119,12)"/>
<path d="M0 0 C0.33 0 0.66 0 1 0 C1 2.31 1 4.62 1 7 C1.66 7.33 2.32 7.66 3 8 C3.125 14.625 3.125 14.625 2 18 C2.99 18.66 3.98 19.32 5 20 C5 20.66 5 21.32 5 22 C4.01 22 3.02 22 2 22 C1.34 22.66 0.68 23.32 0 24 C0 23.34 0 22.68 0 22 C-5.91464093 19.93571484 -5.91464093 19.93571484 -12 20 C-16.08572416 24.17858153 -17.93570718 27.30295256 -18.3125 33.0625 C-18.539375 34.361875 -18.76625 35.66125 -19 37 C-24.96394568 41.05971469 -32.88223025 40.18629496 -39.625 39.0625 C-41.41917918 38.7212896 -43.21189953 38.37175285 -45 38 C-45 38.66 -45 39.32 -45 40 C-50.75 39.25 -50.75 39.25 -53 37 C-54.31747324 36.30251417 -55.64914193 35.63040043 -57 35 C-56.25 32.5625 -56.25 32.5625 -55 30 C-52.875 29.1875 -52.875 29.1875 -51 29 C-51 28.34 -51 27.68 -51 27 C-50.01 27 -49.02 27 -48 27 C-48 26.34 -48 25.68 -48 25 C-43.41632887 22.65486593 -38.88349886 20.62783295 -34 19 C-34 18.34 -34 17.68 -34 17 C-33.34 17 -32.68 17 -32 17 C-31.67 16.34 -31.34 15.68 -31 15 C-30.67 15.33 -30.34 15.66 -30 16 C-27.74791603 15.9616792 -25.49698943 15.84367043 -23.25 15.6875 C-21.40148437 15.56955078 -21.40148437 15.56955078 -19.515625 15.44921875 C-13.73440356 14.71809511 -13.73440356 14.71809511 -9.48828125 11.0546875 C-8.90626953 9.97574219 -8.90626953 9.97574219 -8.3125 8.875 C-7.11328125 6.6796875 -7.11328125 6.6796875 -6 5 C-5.34 5 -4.68 5 -4 5 C-3.67 4.01 -3.34 3.02 -3 2 C-2.34 2 -1.68 2 -1 2 C-0.67 1.34 -0.34 0.68 0 0 Z M-2 16 C-1.34 16.66 -0.68 17.32 0 18 C0 17.34 0 16.68 0 16 C-0.66 16 -1.32 16 -2 16 Z " fill="#0A6952" transform="translate(100,11)"/>
<path d="M0 0 C2.5234375 1.37109375 2.5234375 1.37109375 5 4 C5.42594232 7.39600582 5.01036308 10.67371344 4.625 14.0625 C4.43626085 15.8644488 4.26115838 17.6678928 4.1015625 19.47265625 C4.01213379 20.26937744 3.92270508 21.06609863 3.83056641 21.88696289 C3.80410215 24.11558691 3.80410215 24.11558691 5.49365234 25.78295898 C5.99074707 26.18458252 6.4878418 26.58620605 7 27 C7.99 26.67 8.98 26.34 10 26 C10.33 25.01 10.66 24.02 11 23 C12.65 23.66 14.3 24.32 16 25 C16 25.66 16 26.32 16 27 C16.99 27 17.98 27 19 27 C20.6875 28.375 20.6875 28.375 22 30 C22 30.66 22 31.32 22 32 C23.65 32.33 25.3 32.66 27 33 C27.33 33.99 27.66 34.98 28 36 C26.8140625 35.9278125 25.628125 35.855625 24.40625 35.78125 C7.2770477 33.5585674 7.2770477 33.5585674 -9 36 C-9 35.34 -9 34.68 -9 34 C-9.99 34 -10.98 34 -12 34 C-12.04254356 32.00045254 -12.04080783 29.99958364 -12 28 C-11.67 27.67 -11.34 27.34 -11 27 C-10.94644205 25.5003775 -10.90741234 24.0002285 -10.875 22.5 C-10.35024079 16.32740861 -7.42020631 12.22624807 -3 8 C-2.34 8 -1.68 8 -1 8 C-1.33 7.01 -1.66 6.02 -2 5 C-1.0625 2.3125 -1.0625 2.3125 0 0 Z " fill="#0A6851" transform="translate(38,47)"/>
<path d="M0 0 C0.99 0.33 1.98 0.66 3 1 C2.773125 1.86625 2.54625 2.7325 2.3125 3.625 C1.93390133 7.71386567 3.03922962 9.47061332 5 13 C5 13.99 5 14.98 5 16 C5.99 16.33 6.98 16.66 8 17 C8.66 17.66 9.32 18.32 10 19 C12.00451121 18.69496569 14.00448218 18.35919321 16 18 C18.375 18.4375 18.375 18.4375 20 19 C20 18.34 20 17.68 20 17 C19.34 16.67 18.68 16.34 18 16 C19.32 16 20.64 16 22 16 C22 16.66 22 17.32 22 18 C22.62648437 17.98839844 23.25296875 17.97679688 23.8984375 17.96484375 C24.71570312 17.95582031 25.53296875 17.94679688 26.375 17.9375 C27.18710937 17.92589844 27.99921875 17.91429688 28.8359375 17.90234375 C31 18 31 18 33 19 C33.33 17.68 33.66 16.36 34 15 C34.66 15 35.32 15 36 15 C36.38218767 16.65614657 36.71395102 18.32457024 37 20 C36.505 20.495 36.505 20.495 36 21 C37.299375 21.12375 38.59875 21.2475 39.9375 21.375 C42.15234375 21.5859375 42.15234375 21.5859375 44 22 C44.495 22.99 44.495 22.99 45 24 C23.88 24 2.76 24 -19 24 C-22 8 -22 8 -22 2 C-20.68 2 -19.36 2 -18 2 C-17.34 7.61 -16.68 13.22 -16 19 C-13.69 19 -11.38 19 -9 19 C-8.74605469 18.34773438 -8.49210937 17.69546875 -8.23046875 17.0234375 C-5.88886835 11.0773511 -3.55938758 5.33908136 0 0 Z " fill="#366158" transform="translate(25,80)"/>
<path d="M0 0 C0.144375 0.639375 0.28875 1.27875 0.4375 1.9375 C0.81007181 3.97545146 0.81007181 3.97545146 2 5 C3.66617115 5.04063832 5.33388095 5.042721 7 5 C7.66 3.68 8.32 2.36 9 1 C9.66 1 10.32 1 11 1 C11 1.99 11 2.98 11 4 C11.66 4 12.32 4 13 4 C13 5.32 13 6.64 13 8 C14.58357459 7.68872484 16.16684993 7.37592711 17.75 7.0625 C18.63171875 6.88847656 19.5134375 6.71445313 20.421875 6.53515625 C22.9581007 6.0531871 22.9581007 6.0531871 25.203125 5.30859375 C26.09257813 5.15583984 26.09257813 5.15583984 27 5 C27.66 5.66 28.32 6.32 29 7 C31.11611011 7.13657572 31.11611011 7.13657572 33.4375 6.8125 C34.21996094 6.73644531 35.00242188 6.66039063 35.80859375 6.58203125 C38.33934933 5.90986979 39.33919069 4.98122268 41 3 C41.495 6.465 41.495 6.465 42 10 C46.455 9.505 46.455 9.505 51 9 C51 8.34 51 7.68 51 7 C52.8125 7.25 52.8125 7.25 55 8 C55.99 9.32 56.98 10.64 58 12 C37.54 12 17.08 12 -4 12 C-4.33 11.34 -4.66 10.68 -5 10 C-4.01 10 -3.02 10 -2 10 C-2.33 9.34 -2.66 8.68 -3 8 C-3.99 7.67 -4.98 7.34 -6 7 C-5.34 7 -4.68 7 -4 7 C-3.896875 6.401875 -3.79375 5.80375 -3.6875 5.1875 C-2.91123545 2.71756736 -1.92911079 1.67748765 0 0 Z " fill="#39625A" transform="translate(76,92)"/>
<path d="M0 0 C0.495 1.485 0.495 1.485 1 3 C1.66 3.66 2.32 4.32 3 5 C2.34 5 1.68 5 1 5 C1 7.31 1 9.62 1 12 C0.34 12 -0.32 12 -1 12 C-1.495 9.525 -1.495 9.525 -2 7 C-2.99 7.66 -3.98 8.32 -5 9 C-4.49396008 6.83125748 -4.00016187 5.00032373 -3 3 C-8.36095333 1.87137825 -13.55306686 1.90311779 -19 2 C-18.67 2.66 -18.34 3.32 -18 4 C-20.33333333 4 -22.66666667 4 -25 4 C-24.67 3.01 -24.34 2.02 -24 1 C-26.12750156 1.22773256 -28.25208056 1.48290818 -30.375 1.75 C-31.55835937 1.88921875 -32.74171875 2.0284375 -33.9609375 2.171875 C-37.1088608 2.67611298 -37.1088608 2.67611298 -38.4140625 5.078125 C-38.60742188 5.71234375 -38.80078125 6.3465625 -39 7 C-39.99 5.68 -40.98 4.36 -42 3 C-40.90625 0.58984375 -40.90625 0.58984375 -39 -2 C-28.37777842 -5.64068078 -9.98310154 -5.51595494 0 0 Z " fill="#3F5F57" transform="translate(102,6)"/>
<path d="M0 0 C0.14308594 0.58136719 0.28617188 1.16273437 0.43359375 1.76171875 C0.94600457 3.78662494 1.50176214 5.80044061 2.0625 7.8125 C3.03482013 11.65136391 3.16448822 15.05228261 3 19 C0.03 19.33 -2.94 19.66 -6 20 C-5.77183594 20.68707031 -5.54367188 21.37414062 -5.30859375 22.08203125 C-5.02113281 22.98308594 -4.73367187 23.88414063 -4.4375 24.8125 C-4.14746094 25.70582031 -3.85742188 26.59914063 -3.55859375 27.51953125 C-3 30 -3 30 -4 33 C-6.97 33 -9.94 33 -13 33 C-14.54657293 23.87521968 -14.54657293 23.87521968 -12 20 C-7.83334617 17.25379634 -4.89574514 16.87008498 0 17 C-0.16757813 16.10796875 -0.33515625 15.2159375 -0.5078125 14.296875 C-0.81332031 12.54117188 -0.81332031 12.54117188 -1.125 10.75 C-1.33382812 9.58984375 -1.54265625 8.4296875 -1.7578125 7.234375 C-2.00266144 3.96445684 -1.78779541 2.67507166 0 0 Z " fill="#1B594B" transform="translate(132,65)"/>
<path d="M0 0 C0.99 0.66 1.98 1.32 3 2 C2.54636829 3.58468677 2.08688548 5.16769924 1.625 6.75 C1.36976562 7.63171875 1.11453125 8.5134375 0.8515625 9.421875 C0 12 0 12 -2 16 C1.63 16.33 5.26 16.66 9 17 C9 17.33 9 17.66 9 18 C6.69 18 4.38 18 2 18 C0.7763932 20.0745356 0.7763932 20.0745356 1 23 C-0.32 22.34 -1.64 21.68 -3 21 C-5.03165952 25.33420699 -5.52060632 29.28596212 -6 34 C-8.475 34.495 -8.475 34.495 -11 35 C-10.2469082 27.09253612 -9.29936934 19.30574639 -6 12 C-5.34 12 -4.68 12 -4 12 C-3.8453125 10.4221875 -3.8453125 10.4221875 -3.6875 8.8125 C-3.02266585 5.12569246 -2.11433704 3.03361401 0 0 Z " fill="#395C56" transform="translate(14,39)"/>
<path d="M0 0 C0.99 0 1.98 0 3 0 C3.38218767 1.65614657 3.71395102 3.32457024 4 5 C3.67 5.33 3.34 5.66 3 6 C4.299375 6.12375 5.59875 6.2475 6.9375 6.375 C9.15234375 6.5859375 9.15234375 6.5859375 11 7 C11.495 7.99 11.495 7.99 12 9 C0.12 9 -11.76 9 -24 9 C-24.33 8.34 -24.66 7.68 -25 7 C-22.48300155 4.48300155 -20.42445854 3.89035922 -17 3 C-14.625 3.375 -14.625 3.375 -13 4 C-13 3.34 -13 2.68 -13 2 C-13.66 1.67 -14.32 1.34 -15 1 C-13.68 1 -12.36 1 -11 1 C-11 1.66 -11 2.32 -11 3 C-10.37351562 2.98839844 -9.74703125 2.97679688 -9.1015625 2.96484375 C-8.28429687 2.95582031 -7.46703125 2.94679688 -6.625 2.9375 C-5.81289063 2.92589844 -5.00078125 2.91429688 -4.1640625 2.90234375 C-2 3 -2 3 0 4 C0 2.68 0 1.36 0 0 Z " fill="#3D655E" transform="translate(58,95)"/>
<path d="M0 0 C0.33 0 0.66 0 1 0 C1 2.31 1 4.62 1 7 C1.66 7.33 2.32 7.66 3 8 C3.125 14.625 3.125 14.625 2 18 C2.66 18.66 3.32 19.32 4 20 C-0.19283118 19.35155914 -4.26499921 18.48783354 -8.375 17.4375 C-9.43460937 17.16808594 -10.49421875 16.89867188 -11.5859375 16.62109375 C-12.38257812 16.41613281 -13.17921875 16.21117188 -14 16 C-13.59007813 15.45730469 -13.18015625 14.91460937 -12.7578125 14.35546875 C-12.21898438 13.64003906 -11.68015625 12.92460937 -11.125 12.1875 C-10.59132813 11.47980469 -10.05765625 10.77210937 -9.5078125 10.04296875 C-8.29185219 8.39543703 -7.13583859 6.70375789 -6 5 C-5.34 5 -4.68 5 -4 5 C-3.67 4.01 -3.34 3.02 -3 2 C-2.34 2 -1.68 2 -1 2 C-0.67 1.34 -0.34 0.68 0 0 Z M-2 16 C-1.34 16.66 -0.68 17.32 0 18 C0 17.34 0 16.68 0 16 C-0.66 16 -1.32 16 -2 16 Z " fill="#1D5E4F" transform="translate(100,11)"/>
<path d="M0 0 C1 3 1 3 1 5 C2.46490111 6.3679353 2.46490111 6.3679353 4.3125 7.75 C7.60381552 10.47384732 9.51351198 12.91215794 11 17 C10.67 17.66 10.34 18.32 10 19 C7.69289122 19.59896093 5.38311282 19.95654965 3.03125 20.33984375 C2.3609375 20.55769531 1.690625 20.77554687 1 21 C0.67 21.99 0.34 22.98 0 24 C-0.33 24 -0.66 24 -1 24 C-2.05619003 19.71702469 -2.11702092 15.57014354 -2.0625 11.1875 C-2.05798828 10.49462891 -2.05347656 9.80175781 -2.04882812 9.08789062 C-2.03713156 7.39188932 -2.01919924 5.69593297 -2 4 C-2.99 3.67 -3.98 3.34 -5 3 C-3.35 2.01 -1.7 1.02 0 0 Z " fill="#265A4E" transform="translate(61,5)"/>
<path d="M0 0 C0.66 0 1.32 0 2 0 C4.12792712 10.93860058 3.92615841 20.96119299 3 32 C0.58554629 28.97060499 -0.46292236 26.86695903 -1 23 C-4.96 23.495 -4.96 23.495 -9 24 C-6.3534665 21.3534665 -3.43778736 20.40058003 0 19 C-0.144375 18.27554688 -0.28875 17.55109375 -0.4375 16.8046875 C-2.44568245 6.3454039 -2.44568245 6.3454039 -2 2 C-1.34 1.34 -0.68 0.68 0 0 Z " fill="#325D57" transform="translate(154,57)"/>
<path d="M0 0 C2.31 0 4.62 0 7 0 C7 0.99 7 1.98 7 3 C8.98 3.99 10.96 4.98 13 6 C12.67 6.99 12.34 7.98 12 9 C11.34 9 10.68 9 10 9 C8.79371992 11.33214148 7.8345262 13.49642139 7 16 C6.01 16 5.02 16 4 16 C-0.59225513 5.62642369 -0.59225513 5.62642369 0 0 Z " fill="#145F4B" transform="translate(31,28)"/>
<path d="M0 0 C1.93524562 3.87049123 2.23455972 4.9031177 2.046875 8.95703125 C2.00433594 9.90513672 1.96179688 10.85324219 1.91796875 11.83007812 C1.86253906 12.81427734 1.80710938 13.79847656 1.75 14.8125 C1.71003906 15.78509766 1.67007813 16.75769531 1.62890625 17.75976562 C1.35901855 23.14657827 0.73897583 27.88997677 -1 33 C-3.31 33 -5.62 33 -8 33 C-8 32.67 -8 32.34 -8 32 C-9.65 31.67 -11.3 31.34 -13 31 C-12.505 29.515 -12.505 29.515 -12 28 C-9.36 28.33 -6.72 28.66 -4 29 C-3.67 24.05 -3.34 19.1 -3 14 C-2.34 14 -1.68 14 -1 14 C-0.67 9.38 -0.34 4.76 0 0 Z " fill="#33524B" transform="translate(157,71)"/>
<path d="M0 0 C0.268125 0.639375 0.53625 1.27875 0.8125 1.9375 C1.88667752 4.33131686 1.88667752 4.33131686 5 5 C5.33 5.66 5.66 6.32 6 7 C6.99 6.67 7.98 6.34 9 6 C9 5.34 9 4.68 9 4 C16.75 3.875 16.75 3.875 19 5 C19 6.32 19 7.64 19 9 C12.58604177 10.93012632 8.38700473 11.09029246 2 9 C1.34 10.98 0.68 12.96 0 15 C-2.03420245 11.94869632 -2.75473304 10.59724873 -3 7 C-2.19708955 4.52435943 -1.15134732 2.34874852 0 0 Z " fill="#3D6058" transform="translate(6,70)"/>
<path d="M0 0 C1.32 0.66 2.64 1.32 4 2 C3.67 2.99 3.34 3.98 3 5 C2.34 5 1.68 5 1 5 C0.773125 5.53625 0.54625 6.0725 0.3125 6.625 C-0.86198149 8.75025221 -2.04815247 10.30246801 -3.625 12.125 C-6.21229382 14.63546917 -6.21229382 14.63546917 -6 17 C-4.2984375 17.433125 -4.2984375 17.433125 -2.5625 17.875 C-1.386875 18.24625 -0.21125 18.6175 1 19 C1.33 19.66 1.66 20.32 2 21 C1.31292969 20.9278125 0.62585937 20.855625 -0.08203125 20.78125 C-0.98308594 20.6884375 -1.88414063 20.595625 -2.8125 20.5 C-4.15248047 20.36078125 -4.15248047 20.36078125 -5.51953125 20.21875 C-8.08305099 19.95607599 -8.08305099 19.95607599 -11 20 C-11.98629017 16.86180401 -12.21925401 15.47312707 -10.8125 12.4375 C-9.02403416 10.03232181 -7.26052359 7.96884313 -5 6 C-4.34 6 -3.68 6 -3 6 C-2.67 5.01 -2.34 4.02 -2 3 C-1.34 3 -0.68 3 0 3 C0 2.01 0 1.02 0 0 Z " fill="#40554E" transform="translate(27,23)"/>
<path d="M0 0 C-2.6855594 2.6855594 -5.37621328 3.06049974 -9 4 C-9 4.66 -9 5.32 -9 6 C-11.265625 7.69140625 -11.265625 7.69140625 -14.25 9.5625 C-15.71179688 10.49255859 -15.71179688 10.49255859 -17.203125 11.44140625 C-19.56819609 12.75937184 -21.36190757 13.54147441 -24 14 C-22.62845496 11.04590299 -21.01136276 8.55991624 -19 6 C-20.39195915 3.2160817 -22.15575779 3.02101003 -25 2 C-22 1 -22 1 -18.8125 2.4375 C-17.884375 2.953125 -16.95625 3.46875 -16 4 C-16 2.68 -16 1.36 -16 0 C-15.01 0.33 -14.02 0.66 -13 1 C-13 1.66 -13 2.32 -13 3 C-12.48050781 2.69964844 -11.96101563 2.39929688 -11.42578125 2.08984375 C-4.49912127 -1.68717047 -4.49912127 -1.68717047 0 0 Z M-16 4 C-16 4.99 -16 5.98 -16 7 C-15.34 7 -14.68 7 -14 7 C-14.33 6.01 -14.66 5.02 -15 4 C-15.33 4 -15.66 4 -16 4 Z " fill="#38655C" transform="translate(62,29)"/>
<path d="M0 0 C2.8992226 0.46761655 3.86675182 0.86675182 6 3 C5.34 3.66 4.68 4.32 4 5 C3.34 4.34 2.68 3.68 2 3 C1.01 4.485 1.01 4.485 0 6 C0.33 6.99 0.66 7.98 1 9 C2.98 9 4.96 9 7 9 C7.33 7.35 7.66 5.7 8 4 C8.33 4 8.66 4 9 4 C9 6.31 9 8.62 9 11 C9.66 11 10.32 11 11 11 C11 11.99 11 12.98 11 14 C9.02 14.99 9.02 14.99 7 16 C6.67 15.67 6.34 15.34 6 15 C4.65252916 14.76924918 3.29622435 14.58846937 1.9375 14.4375 C0.638125 14.293125 -0.66125 14.14875 -2 14 C-2 11.24997439 -1.82171776 8.61074434 -1.5625 5.875 C-1.48128906 4.98554687 -1.40007813 4.09609375 -1.31640625 3.1796875 C-1 1 -1 1 0 0 Z M-6 13 C-3 14 -3 14 -3 14 Z " fill="#2D5952" transform="translate(63,88)"/>
<path d="M0 0 C1.20628008 2.33214148 2.1654738 4.49642139 3 7 C5.64 6.67 8.28 6.34 11 6 C11 5.34 11 4.68 11 4 C12.8125 4.25 12.8125 4.25 15 5 C15.99 6.32 16.98 7.64 18 9 C8.1 9 -1.8 9 -12 9 C-11.67 7.35 -11.34 5.7 -11 4 C-10.37351562 3.96261719 -9.74703125 3.92523438 -9.1015625 3.88671875 C-8.28429687 3.82097656 -7.46703125 3.75523438 -6.625 3.6875 C-5.81289062 3.62949219 -5.00078125 3.57148437 -4.1640625 3.51171875 C-1.62078662 3.17009472 -1.62078662 3.17009472 0 0 Z " fill="#416A5F" transform="translate(116,95)"/>
<path d="M0 0 C1.32 0 2.64 0 4 0 C4.66 5.61 5.32 11.22 6 17 C8.97 17.33 11.94 17.66 15 18 C14.33333333 19.33333333 13.66666667 20.66666667 13 22 C9.7 22 6.4 22 3 22 C2.49311395 19.45953542 1.99433126 16.91791124 1.5 14.375 C1.35691406 13.66214844 1.21382813 12.94929688 1.06640625 12.21484375 C0.26950574 8.07855065 -0.16034056 4.23566321 0 0 Z " fill="#3B5852" transform="translate(3,82)"/>
<path d="M0 0 C0.99 0 1.98 0 3 0 C3.28673875 7.16846871 2.44852763 12.59559154 -1 19 C-3.02045442 18.39816251 -5.02111039 17.72693904 -7 17 C-7.33 16.34 -7.66 15.68 -8 15 C-5.36 14.67 -2.72 14.34 0 14 C-0.66 13.34 -1.32 12.68 -2 12 C-2 11.01 -2 10.02 -2 9 C-4.64 9 -7.28 9 -10 9 C-9.67 9.99 -9.34 10.98 -9 12 C-10.875 12.625 -10.875 12.625 -13 13 C-13.66 12.34 -14.32 11.68 -15 11 C-15 10.34 -15 9.68 -15 9 C-5.58997722 6.70387244 -5.58997722 6.70387244 -1 7 C-0.67 5.68 -0.34 4.36 0 3 C-0.66 2.67 -1.32 2.34 -2 2 C-1.34 2 -0.68 2 0 2 C0 1.34 0 0.68 0 0 Z M0 5 C1 8 1 8 1 8 Z " fill="#285148" transform="translate(25,65)"/>
<path d="M0 0 C0.144375 0.639375 0.28875 1.27875 0.4375 1.9375 C0.81007181 3.97545146 0.81007181 3.97545146 2 5 C3.66617115 5.04063832 5.33388095 5.042721 7 5 C7.66 3.68 8.32 2.36 9 1 C9.66 1 10.32 1 11 1 C11 2.98 11 4.96 11 7 C9.35 7 7.7 7 6 7 C7.32 7.99 8.64 8.98 10 10 C8.68 10 7.36 10 6 10 C6 10.66 6 11.32 6 12 C2.7 12 -0.6 12 -4 12 C-4.33 11.34 -4.66 10.68 -5 10 C-4.01 10 -3.02 10 -2 10 C-2.33 9.34 -2.66 8.68 -3 8 C-3.99 7.67 -4.98 7.34 -6 7 C-5.34 7 -4.68 7 -4 7 C-3.896875 6.401875 -3.79375 5.80375 -3.6875 5.1875 C-2.91123545 2.71756736 -1.92911079 1.67748765 0 0 Z " fill="#396159" transform="translate(76,92)"/>
<path d="M0 0 C2 1 2 1 3.125 3.1875 C4.08328236 6.26769331 4.14915816 8.79309948 4 12 C0.33333333 12 -3.33333333 12 -7 12 C-5.83561481 3.71027259 -5.83561481 3.71027259 -2.5 0.875 C-1.2625 0.441875 -1.2625 0.441875 0 0 Z " fill="#24584C" transform="translate(26,87)"/>
<path d="M0 0 C0.33 0.66 0.66 1.32 1 2 C0.01 2.495 0.01 2.495 -1 3 C-1 3.66 -1 4.32 -1 5 C-0.67 4.67 -0.34 4.34 0 4 C0.99 3.67 1.98 3.34 3 3 C2.979375 3.763125 2.95875 4.52625 2.9375 5.3125 C2.87057159 8.10185786 2.87057159 8.10185786 4 11 C1.125 11.625 1.125 11.625 -2 12 C-2.66 11.34 -3.32 10.68 -4 10 C-5.98356483 9.28591666 -7.98315437 8.61382258 -10 8 C-10 7.34 -10 6.68 -10 6 C-12.64 6.66 -15.28 7.32 -18 8 C-17.375 6.0625 -17.375 6.0625 -16 4 C-12.875 3.25 -12.875 3.25 -10 3 C-9.67 4.32 -9.34 5.64 -9 7 C-7.35 6.67 -5.7 6.34 -4 6 C-4 4.68 -4 3.36 -4 2 C-2.68 1.34 -1.36 0.68 0 0 Z M-3 7 C-1.68 7.99 -0.36 8.98 1 10 C0.67 9.01 0.34 8.02 0 7 C-0.99 7 -1.98 7 -3 7 Z " fill="#1E5448" transform="translate(91,59)"/>
<path d="M0 0 C1.32 0.33 2.64 0.66 4 1 C4 1.66 4 2.32 4 3 C3.01 3.495 3.01 3.495 2 4 C2.02320313 5.05960938 2.04640625 6.11921875 2.0703125 7.2109375 C2.08906944 8.5989513 2.10726972 9.9869727 2.125 11.375 C2.14175781 12.07367188 2.15851562 12.77234375 2.17578125 13.4921875 C2.19344267 15.32897486 2.10303261 17.16601963 2 19 C1.34 19.66 0.68 20.32 0 21 C-0.33 20.01 -0.66 19.02 -1 18 C-1.99 17.67 -2.98 17.34 -4 17 C-3.91266027 14.91589342 -3.80447722 12.83265331 -3.6875 10.75 C-3.62949219 9.58984375 -3.57148437 8.4296875 -3.51171875 7.234375 C-2.98288197 3.89180362 -2.26227667 2.4502943 0 0 Z " fill="#235F52" transform="translate(45,54)"/>
<path d="M0 0 C1.97986082 0.11347619 3.95891598 0.2410935 5.9375 0.375 C7.03964844 0.44460937 8.14179688 0.51421875 9.27734375 0.5859375 C10.62505859 0.79089844 10.62505859 0.79089844 12 1 C12.33 1.66 12.66 2.32 13 3 C13.66 3.33 14.32 3.66 15 4 C13.79618552 6.49361571 12.54571278 8.68143083 11 11 C5.33764586 9.68317346 3.21572253 7.63442365 0 3 C0 2.01 0 1.02 0 0 Z " fill="#165B48" transform="translate(19,42)"/>
<path d="M0 0 C0.99 0.66 1.98 1.32 3 2 C-0.63793103 15.9454023 -0.63793103 15.9454023 -6.25 19.375 C-6.8275 19.58125 -7.405 19.7875 -8 20 C-7.33333333 17.33333333 -6.66666667 14.66666667 -6 12 C-5.34 12 -4.68 12 -4 12 C-3.8453125 10.4221875 -3.8453125 10.4221875 -3.6875 8.8125 C-3.02266585 5.12569246 -2.11433704 3.03361401 0 0 Z " fill="#2B4642" transform="translate(14,39)"/>
<path d="M0 0 C0.66 0.66 1.32 1.32 2 2 C1.40539047 3.91965309 0.79890739 5.83563079 0.1875 7.75 C-0.14894531 8.81734375 -0.48539063 9.8846875 -0.83203125 10.984375 C-2.82825485 16.13850416 -2.82825485 16.13850416 -5 18 C-8.20293427 18.78186432 -11.40463462 19.01945496 -14.6875 19.25 C-15.58017578 19.32734375 -16.47285156 19.4046875 -17.39257812 19.484375 C-19.59423076 19.6727517 -21.79585957 19.84394343 -24 20 C-24.33 19.34 -24.66 18.68 -25 18 C-23.81921875 17.86722656 -22.6384375 17.73445313 -21.421875 17.59765625 C-19.86456738 17.4194102 -18.30727658 17.24101707 -16.75 17.0625 C-15.97269531 16.97548828 -15.19539063 16.88847656 -14.39453125 16.79882812 C-13.64042969 16.71181641 -12.88632813 16.62480469 -12.109375 16.53515625 C-11.07248535 16.41732788 -11.07248535 16.41732788 -10.01464844 16.29711914 C-7.98561985 15.99787922 -5.98973875 15.49743469 -4 15 C-4 10.71 -4 6.42 -4 2 C-2.68 1.34 -1.36 0.68 0 0 Z " fill="#40655E" transform="translate(85,33)"/>
<path d="M0 0 C0.66 0.66 1.32 1.32 2 2 C1.01 2.33 0.02 2.66 -1 3 C-0.34 3.33 0.32 3.66 1 4 C1 4.99 1 5.98 1 7 C1.86625 7.185625 1.86625 7.185625 2.75 7.375 C5.02335767 8.00648824 6.9253529 8.88858191 9 10 C7.35 10.66 5.7 11.32 4 12 C4.99 12.66 5.98 13.32 7 14 C4.36 13.67 1.72 13.34 -1 13 C-1 12.01 -1 11.02 -1 10 C-1.99 10 -2.98 10 -4 10 C-4.25 7.25 -4.25 7.25 -4 4 C-2 1.625 -2 1.625 0 0 Z " fill="#295A4F" transform="translate(136,88)"/>
<path d="M0 0 C1.12894876 0.93274109 2.25300876 1.87140122 3.375 2.8125 C4.00148438 3.33457031 4.62796875 3.85664063 5.2734375 4.39453125 C7 6 7 6 9 9 C9.66 9 10.32 9 11 9 C11 9.66 11 10.32 11 11 C8.03 12.32 5.06 13.64 2 15 C2 14.01 2 13.02 2 12 C1.34 11.34 0.68 10.68 0 10 C-0.1953125 7.6171875 -0.1953125 7.6171875 -0.125 4.875 C-0.10695312 3.96492188 -0.08890625 3.05484375 -0.0703125 2.1171875 C-0.04710937 1.41851563 -0.02390625 0.71984375 0 0 Z " fill="#12634D" transform="translate(46,18)"/>
<path d="M0 0 C0.66 0.66 1.32 1.32 2 2 C-7.41002278 6.59225513 -7.41002278 6.59225513 -12 6 C-12 6.66 -12 7.32 -12 8 C-14.31 8.66 -16.62 9.32 -19 10 C-16.13114584 3.83196356 -11.93626517 2.27460903 -5.77734375 -0.21484375 C-3 -1 -3 -1 0 0 Z " fill="#3C5952" transform="translate(57,8)"/>
<path d="M0 0 C4.875 2.625 4.875 2.625 6 6 C5.34 6 4.68 6 4 6 C3.67 7.65 3.34 9.3 3 11 C0.69 11 -1.62 11 -4 11 C-4 8.69 -4 6.38 -4 4 C-3.01 3.67 -2.02 3.34 -1 3 C-0.67 2.01 -0.34 1.02 0 0 Z " fill="#15624E" transform="translate(108,87)"/>
<path d="M0 0 C0.66 0.33 1.32 0.66 2 1 C0.68 2.65 -0.64 4.3 -2 6 C-1.01 7.485 -1.01 7.485 0 9 C3.465 8.505 3.465 8.505 7 8 C7 6.35 7 4.7 7 3 C7.66 3.33 8.32 3.66 9 4 C9.08226668 7.04386724 8.97608217 9.07175348 8 12 C8.66 12.66 9.32 13.32 10 14 C5.80716882 13.35155914 1.73500079 12.48783354 -2.375 11.4375 C-3.43460937 11.16808594 -4.49421875 10.89867187 -5.5859375 10.62109375 C-6.38257812 10.41613281 -7.17921875 10.21117187 -8 10 C-7.04367001 8.70684939 -6.08486149 7.41553147 -5.125 6.125 C-4.59132813 5.40570312 -4.05765625 4.68640625 -3.5078125 3.9453125 C-2 2 -2 2 0 0 Z M4 10 C4.66 10.66 5.32 11.32 6 12 C6 11.34 6 10.68 6 10 C5.34 10 4.68 10 4 10 Z " fill="#335C53" transform="translate(94,17)"/>
<path d="M0 0 C0 0.99 0 1.98 0 3 C2.86724686 2.42655063 3.8614515 2.1385485 6 0 C6 1.65 6 3.3 6 5 C3.03 4.67 0.06 4.34 -3 4 C-2.67 4.99 -2.34 5.98 -2 7 C-2.66 7 -3.32 7 -4 7 C-4 7.66 -4 8.32 -4 9 C-4.66 9 -5.32 9 -6 9 C-4.78955868 13.60742865 -4.78955868 13.60742865 -3 18 C-3.66 18.66 -4.32 19.32 -5 20 C-5 19.34 -5 18.68 -5 18 C-5.66 18 -6.32 18 -7 18 C-7.08119503 15.75059705 -7.13927819 13.50035129 -7.1875 11.25 C-7.22230469 9.99703125 -7.25710937 8.7440625 -7.29296875 7.453125 C-6.81795158 1.85425596 -5.73872952 0 0 0 Z " fill="#1A5A4E" transform="translate(97,39)"/>
<path d="M0 0 C3.11259604 0.345844 4.82872813 0.87379967 7.375 2.75 C9 5 9 5 8.75 7.75 C8.5025 8.4925 8.255 9.235 8 10 C5.03 10 2.06 10 -1 10 C-1.125 3.375 -1.125 3.375 0 0 Z " fill="#11634C" transform="translate(78,13)"/>
<path d="M0 0 C11.26482946 0.8311913 11.26482946 0.8311913 15 3 C15.33 3.99 15.66 4.98 16 6 C16.66 6.66 17.32 7.32 18 8 C17.34 8 16.68 8 16 8 C16 10.31 16 12.62 16 15 C15.34 15 14.68 15 14 15 C13.67 13.35 13.34 11.7 13 10 C12.01 10.66 11.02 11.32 10 12 C10.50603992 9.83125748 10.99983813 8.00032373 12 6 C9.03 5.505 9.03 5.505 6 5 C6 4.34 6 3.68 6 3 C3.03 2.505 3.03 2.505 0 2 C0 1.34 0 0.68 0 0 Z " fill="#4D716A" transform="translate(87,3)"/>
<path d="M0 0 C0.33 0.66 0.66 1.32 1 2 C2.175625 1.649375 3.35125 1.29875 4.5625 0.9375 C8.67348777 -0.06837999 11.86850391 -0.21514591 16 1 C18 3.4375 18 3.4375 19 6 C18.67 6.66 18.34 7.32 18 8 C17.34 7.67 16.68 7.34 16 7 C15.34 8.32 14.68 9.64 14 11 C13.01 10.34 12.02 9.68 11 9 C11.66 7.35 12.32 5.7 13 4 C11.94039062 4.02320312 10.88078125 4.04640625 9.7890625 4.0703125 C8.4010487 4.08906944 7.0130273 4.10726972 5.625 4.125 C4.57699219 4.15013672 4.57699219 4.15013672 3.5078125 4.17578125 C1.67102514 4.19344267 -0.16601963 4.10303261 -2 4 C-2.66 3.34 -3.32 2.68 -4 2 C-2.68 2 -1.36 2 0 2 C0 1.34 0 0.68 0 0 Z " fill="#184B41" transform="translate(93,81)"/>
<path d="M0 0 C1.75 0.0625 1.75 0.0625 4 1 C5.72518887 3.25123006 6.76906007 5.40134903 8 8 C7.67 8.66 7.34 9.32 7 10 C0.57142857 11.28571429 0.57142857 11.28571429 -2 10 C-2 8.02 -2 6.04 -2 4 C-0.68 4 0.64 4 2 4 C1.34 2.68 0.68 1.36 0 0 Z " fill="#27564D" transform="translate(64,14)"/>
<path d="M0 0 C1 3 1 3 0 5.6875 C-2 8 -2 8 -5.6875 8.3125 C-6.780625 8.209375 -7.87375 8.10625 -9 8 C-9 5.69 -9 3.38 -9 1 C-5.8035914 -0.06546953 -3.34252724 -0.07427838 0 0 Z " fill="#156451" transform="translate(85,90)"/>
<path d="M0 0 C0.66 0 1.32 0 2 0 C4.13586678 3.20380017 4.23132175 4.01939967 4.125 7.6875 C4.10695313 8.49574219 4.08890625 9.30398437 4.0703125 10.13671875 C4.03550781 11.05904297 4.03550781 11.05904297 4 12 C2.35 12 0.7 12 -1 12 C-0.67 10.02 -0.34 8.04 0 6 C-0.99 7.485 -0.99 7.485 -2 9 C-2.99 8.67 -3.98 8.34 -5 8 C-4.67 7.01 -4.34 6.02 -4 5 C-1 4 -1 4 0 4 C0 2.68 0 1.36 0 0 Z " fill="#296053" transform="translate(94,56)"/>
<path d="M0 0 C0.99 0 1.98 0 3 0 C3.12375 0.804375 3.2475 1.60875 3.375 2.4375 C3.684375 3.7059375 3.684375 3.7059375 4 5 C4.66 5.33 5.32 5.66 6 6 C6.72693904 7.97888961 7.39816251 9.97954558 8 12 C4.30581799 12 2.22163822 10.71820705 -1 9 C-1 6 -1 6 1 4 C0.01 4 -0.98 4 -2 4 C-1.34 2.68 -0.68 1.36 0 0 Z " fill="#225F52" transform="translate(136,85)"/>
<path d="M0 0 C3.23356015 1.21258505 4.00856305 2.01284458 6 5 C5.01 5.33 4.02 5.66 3 6 C1.77479736 9.00847418 1.77479736 9.00847418 1 12 C-3.75 13.125 -3.75 13.125 -6 12 C-6.625 9.4375 -6.625 9.4375 -7 7 C-4.525 7.99 -4.525 7.99 -2 9 C-1.01 7.68 -0.02 6.36 1 5 C0.05270463 2.84188612 0.05270463 2.84188612 -2 1 C-1.34 0.67 -0.68 0.34 0 0 Z " fill="#2E6154" transform="translate(32,43)"/>
<path d="M0 0 C1.32 0.33 2.64 0.66 4 1 C4.33 2.32 4.66 3.64 5 5 C4.34 5 3.68 5 3 5 C2.67 6.32 2.34 7.64 2 9 C0.35 9 -1.3 9 -3 9 C-3 7.68 -3 6.36 -3 5 C-3.66 5 -4.32 5 -5 5 C-4.67 4.01 -4.34 3.02 -4 2 C-2.68 2 -1.36 2 0 2 C0 1.34 0 0.68 0 0 Z " fill="#0F6957" transform="translate(140,57)"/>
<path d="M0 0 C7.75 -0.125 7.75 -0.125 10 1 C10 2.32 10 3.64 10 5 C7.03 5.66 4.06 6.32 1 7 C0.67 4.69 0.34 2.38 0 0 Z " fill="#126553" transform="translate(15,74)"/>
<path d="M0 0 C7.11484687 0.3856646 13.35441866 1.39099399 20 4 C20 4.66 20 5.32 20 6 C19.01 6 18.02 6 17 6 C16.34 6.66 15.68 7.32 15 8 C15 7.34 15 6.68 15 6 C14.00097656 5.81824219 13.00195312 5.63648438 11.97265625 5.44921875 C10.68230469 5.19785156 9.39195313 4.94648438 8.0625 4.6875 C6.77472656 4.44386719 5.48695312 4.20023438 4.16015625 3.94921875 C2.59587891 3.47935547 2.59587891 3.47935547 1 3 C0.67 2.01 0.34 1.02 0 0 Z " fill="#14614E" transform="translate(85,27)"/>
<path d="M0 0 C2.94399274 0.34401713 3.97321226 0.97316256 6.10546875 3.109375 C6.79253906 3.98078125 7.47960937 4.8521875 8.1875 5.75 C9.22970703 7.04164062 9.22970703 7.04164062 10.29296875 8.359375 C12.00977657 11.01512348 12.62518712 12.88961256 13 16 C12.01 15.67 11.02 15.34 10 15 C10 14.34 10 13.68 10 13 C9.34 13 8.68 13 8 13 C6.55473264 11.26451831 5.1912778 9.46024037 3.875 7.625 C3.15054688 6.62726562 2.42609375 5.62953125 1.6796875 4.6015625 C0 2 0 2 0 0 Z " fill="#335045" transform="translate(132,25)"/>
<path d="M0 0 C2.03833424 1.2739589 4.03852126 2.61061923 6 4 C6 4.66 6 5.32 6 6 C6.99 6.33 7.98 6.66 9 7 C8.34 7.66 7.68 8.32 7 9 C7.99 10.485 7.99 10.485 9 12 C6.36 12.66 3.72 13.32 1 14 C2 11 2 11 4 9 C3.154375 8.071875 2.30875 7.14375 1.4375 6.1875 C-0.00390625 4.60546875 -0.00390625 4.60546875 -1 3 C-0.67 2.01 -0.34 1.02 0 0 Z " fill="#3F5851" transform="translate(126,18)"/>
<path d="M0 0 C0.66 1.32 1.32 2.64 2 4 C0.3603125 4.37125 0.3603125 4.37125 -1.3125 4.75 C-5.05908409 6.02002851 -6.10595266 6.65756352 -8 10 C-8.99 8.68 -9.98 7.36 -11 6 C-10 3.5625 -10 3.5625 -8 1 C-5.27285838 0.23618519 -2.85832822 0.14057352 0 0 Z " fill="#3B5B51" transform="translate(71,3)"/>
<path d="M0 0 C-0.66 1.65 -1.32 3.3 -2 5 C-5.96 5 -9.92 5 -14 5 C-14.33 4.34 -14.66 3.68 -15 3 C-10.31074081 -1.68925919 -6.10008343 -1.03391244 0 0 Z " fill="#43665E" transform="translate(48,99)"/>
<path d="M0 0 C0 0.99 0 1.98 0 3 C-0.99 3.495 -0.99 3.495 -2 4 C-0.35 4 1.3 4 3 4 C3 4.66 3 5.32 3 6 C1.52168779 6.19412181 0.04230684 6.38012131 -1.4375 6.5625 C-2.26121094 6.66691406 -3.08492187 6.77132813 -3.93359375 6.87890625 C-4.61550781 6.91886719 -5.29742187 6.95882813 -6 7 C-6.33 6.67 -6.66 6.34 -7 6 C-8.32 6.99 -9.64 7.98 -11 9 C-11.66 8.34 -12.32 7.68 -13 7 C-13 6.34 -13 5.68 -13 5 C-12.45730469 4.80664062 -11.91460937 4.61328125 -11.35546875 4.4140625 C-10.64003906 4.15367188 -9.92460938 3.89328125 -9.1875 3.625 C-8.47980469 3.36976562 -7.77210937 3.11453125 -7.04296875 2.8515625 C-0.20183486 0 -0.20183486 0 0 0 Z " fill="#467069" transform="translate(75,21)"/>
<path d="M0 0 C7.26 0 14.52 0 22 0 C22 0.33 22 0.66 22 1 C19.69 1.33 17.38 1.66 15 2 C15 2.33 15 2.66 15 3 C10.05 3 5.1 3 0 3 C0 2.01 0 1.02 0 0 Z " fill="#3B5B56" transform="translate(19,101)"/>
<path d="M0 0 C0.99 0.33 1.98 0.66 3 1 C3 2.98 3 4.96 3 7 C3.66 7 4.32 7 5 7 C5 6.34 5 5.68 5 5 C7.64 5 10.28 5 13 5 C12.01 5.495 12.01 5.495 11 6 C11 6.66 11 7.32 11 8 C10.01 8 9.02 8 8 8 C7.67 8.99 7.34 9.98 7 11 C6.34 11 5.68 11 5 11 C5 10.34 5 9.68 5 9 C4.01 8.67 3.02 8.34 2 8 C0.3125 4.4375 0.3125 4.4375 -1 1 C-0.67 0.67 -0.34 0.34 0 0 Z " fill="#16624F" transform="translate(65,65)"/>
<path d="M0 0 C0.66 0 1.32 0 2 0 C2 1.98 2 3.96 2 6 C0.35 6 -1.3 6 -3 6 C-1.68 6.99 -0.36 7.98 1 9 C-0.32 9 -1.64 9 -3 9 C-3.33 9.66 -3.66 10.32 -4 11 C-5.9375 10.1875 -5.9375 10.1875 -8 9 C-8.33 8.01 -8.66 7.02 -9 6 C-9.33 6.99 -9.66 7.98 -10 9 C-10 7.68 -10 6.36 -10 5 C-7.07175348 4.02391783 -5.04386724 3.91773332 -2 4 C-1.34 2.68 -0.68 1.36 0 0 Z " fill="#2A584F" transform="translate(85,93)"/>
<path d="M0 0 C0.33 0.99 0.66 1.98 1 3 C-3.17737474 4.59138085 -6.53160785 5.21278058 -11 5 C-11 5.66 -11 6.32 -11 7 C-11.66 7 -12.32 7 -13 7 C-13.33 5.35 -13.66 3.7 -14 2 C-12.906875 1.855625 -11.81375 1.71125 -10.6875 1.5625 C-0.44444444 0 -0.44444444 0 0 0 Z " fill="#407368" transform="translate(81,65)"/>
<path d="M0 0 C-3.02604733 3.66310993 -6.1168601 3.73098001 -10.625 4.375 C-13.29862643 5.0785859 -14.17450154 6.00064454 -16 8 C-16.66 8 -17.32 8 -18 8 C-18 5 -18 5 -17 4 C-17.33 3.34 -17.66 2.68 -18 2 C-16.95199219 1.90912109 -16.95199219 1.90912109 -15.8828125 1.81640625 C-14.97273438 1.73261719 -14.06265625 1.64882813 -13.125 1.5625 C-12.22007812 1.48128906 -11.31515625 1.40007813 -10.3828125 1.31640625 C-0.40313653 -0.00876384 -0.40313653 -0.00876384 0 0 Z " fill="#315F58" transform="translate(142,42)"/>
<path d="M0 0 C-0.33 1.98 -0.66 3.96 -1 6 C-3.3125 6.625 -3.3125 6.625 -6 7 C-6.99 6.34 -7.98 5.68 -9 5 C-9 4.34 -9 3.68 -9 3 C-8.34 3 -7.68 3 -7 3 C-7 2.01 -7 1.02 -7 0 C-3.86650268 -1.04449911 -3.01031744 -0.93423645 0 0 Z " fill="#16604A" transform="translate(115,24)"/>
<path d="M0 0 C1.98 0 3.96 0 6 0 C6 0.66 6 1.32 6 2 C11.94 2 17.88 2 24 2 C23.67 2.66 23.34 3.32 23 4 C17.555 3.505 17.555 3.505 12 3 C12 3.99 12 4.98 12 6 C10.35 6.33 8.7 6.66 7 7 C7.66 5.68 8.32 4.36 9 3 C5.7 3 2.4 3 -1 3 C-0.67 2.01 -0.34 1.02 0 0 Z " fill="#224D44" transform="translate(28,81)"/>
<path d="M0 0 C1.32 0 2.64 0 4 0 C4 0.66 4 1.32 4 2 C6.97 2 9.94 2 13 2 C13.33 2.66 13.66 3.32 14 4 C13.67 4.66 13.34 5.32 13 6 C10.03 6 7.06 6 4 6 C4 5.34 4 4.68 4 4 C3.34 3.67 2.68 3.34 2 3 C2 2.34 2 1.68 2 1 C1.34 0.67 0.68 0.34 0 0 Z " fill="#2E6155" transform="translate(43,96)"/>
<path d="M0 0 C0.99 0.33 1.98 0.66 3 1 C4.32 1 5.64 1 7 1 C6.34 2.98 5.68 4.96 5 7 C3.02 7 1.04 7 -1 7 C-1 6.34 -1 5.68 -1 5 C-1.66 4.67 -2.32 4.34 -3 4 C-2.01 2.68 -1.02 1.36 0 0 Z " fill="#156756" transform="translate(65,90)"/>
<path d="M0 0 C0.66 0.33 1.32 0.66 2 1 C4.09821215 0.60061233 4.09821215 0.60061233 6 0 C6.39253254 4.44870215 5.15305957 7.14243493 3 11 C2.67 9.68 2.34 8.36 2 7 C1.34 7 0.68 7 0 7 C-0.93423645 3.98968256 -1.04449911 3.13349732 0 0 Z " fill="#215747" transform="translate(126,30)"/>
<path d="M0 0 C2.8992226 0.46761655 3.86675182 0.86675182 6 3 C5.34 3.66 4.68 4.32 4 5 C3.34 4.34 2.68 3.68 2 3 C1.01 4.485 1.01 4.485 0 6 C0.33 6.99 0.66 7.98 1 9 C3.31 9 5.62 9 8 9 C8 9.33 8 9.66 8 10 C4.7 10.33 1.4 10.66 -2 11 C-1.125 1.125 -1.125 1.125 0 0 Z " fill="#1A5146" transform="translate(63,88)"/>
<path d="M0 0 C2.97 0 5.94 0 9 0 C9.33 0.99 9.66 1.98 10 3 C9.01 3.33 8.02 3.66 7 4 C7 4.66 7 5.32 7 6 C5.02 6.66 3.04 7.32 1 8 C1.33 6.68 1.66 5.36 2 4 C2.66 4 3.32 4 4 4 C3.04134491 1.66924071 3.04134491 1.66924071 0 0 Z " fill="#305C51" transform="translate(141,58)"/>
<path d="M0 0 C3.96 0.33 7.92 0.66 12 1 C12 1.33 12 1.66 12 2 C10.6078125 2.185625 10.6078125 2.185625 9.1875 2.375 C5.86074765 2.81533082 5.86074765 2.81533082 3 5 C0.66800612 5.07905064 -1.66832622 5.08798769 -4 5 C-4.33 5.66 -4.66 6.32 -5 7 C-4.67 5.68 -4.34 4.36 -4 3 C-2.68 2.67 -1.36 2.34 0 2 C0 1.34 0 0.68 0 0 Z " fill="#275B4F" transform="translate(55,49)"/>
<path d="M0 0 C2.97 0.495 2.97 0.495 6 1 C6 1.66 6 2.32 6 3 C7.65 3.33 9.3 3.66 11 4 C9.68 4.33 8.36 4.66 7 5 C6.67 6.32 6.34 7.64 6 9 C0.42857143 3.85714286 0.42857143 3.85714286 0 0 Z " fill="#1E5A4B" transform="translate(19,42)"/>
<path d="M0 0 C-1.65 1.65 -3.3 3.3 -5 5 C-9.875 1.25 -9.875 1.25 -11 -1 C-3.375 -2.25 -3.375 -2.25 0 0 Z " fill="#0D5F4C" transform="translate(138,47)"/>
<path d="M0 0 C3.875 1.75 3.875 1.75 5 4 C6.155 4.33 7.31 4.66 8.5 5 C9.655 5.33 10.81 5.66 12 6 C12.33 6.66 12.66 7.32 13 8 C12.31292969 7.9278125 11.62585937 7.855625 10.91796875 7.78125 C10.01691406 7.6884375 9.11585937 7.595625 8.1875 7.5 C7.29417969 7.4071875 6.40085937 7.314375 5.48046875 7.21875 C2.91694901 6.95607599 2.91694901 6.95607599 0 7 C-1.125 2.25 -1.125 2.25 0 0 Z " fill="#49645F" transform="translate(16,36)"/>
<path d="M0 0 C0.33 0.66 0.66 1.32 1 2 C-0.98 2.66 -2.96 3.32 -5 4 C-4.67 4.99 -4.34 5.98 -4 7 C-3.34 7.33 -2.68 7.66 -2 8 C-2.99 8.66 -3.98 9.32 -5 10 C-7.04296875 9.5390625 -7.04296875 9.5390625 -9.1875 8.625 C-9.90292969 8.32851563 -10.61835937 8.03203125 -11.35546875 7.7265625 C-11.89816406 7.48679687 -12.44085938 7.24703125 -13 7 C-13 6.34 -13 5.68 -13 5 C-10.525 5.99 -10.525 5.99 -8 7 C-7.979375 6.401875 -7.95875 5.80375 -7.9375 5.1875 C-7 3 -7 3 -3.4375 1.25 C-1.7359375 0.63125 -1.7359375 0.63125 0 0 Z " fill="#326155" transform="translate(125,31)"/>
<path d="M0 0 C0.66 0 1.32 0 2 0 C2 0.66 2 1.32 2 2 C2.66 2.33 3.32 2.66 4 3 C3.67 3.99 3.34 4.98 3 6 C-2.445 6.495 -2.445 6.495 -8 7 C-8.33 6.01 -8.66 5.02 -9 4 C-10.98 4.99 -10.98 4.99 -13 6 C-12.67 4.35 -12.34 2.7 -12 1 C-11.67 1.66 -11.34 2.32 -11 3 C-10.34 3 -9.68 3 -9 3 C-8.67 2.34 -8.34 1.68 -8 1 C-8 2.32 -8 3.64 -8 5 C-4.535 4.505 -4.535 4.505 -1 4 C-0.67 2.68 -0.34 1.36 0 0 Z " fill="#255246" transform="translate(112,93)"/>
<path d="M0 0 C2.97 0.495 2.97 0.495 6 1 C6 1.66 6 2.32 6 3 C6.66 3.33 7.32 3.66 8 4 C7.67 4.66 7.34 5.32 7 6 C4.67843403 6.40729228 2.3431213 6.74438677 0 7 C-0.93423645 3.98968256 -1.04449911 3.13349732 0 0 Z " fill="#155A48" transform="translate(138,75)"/>
<path d="M0 0 C1.0625 1.8125 1.0625 1.8125 2 4 C1.67 4.99 1.34 5.98 1 7 C-1.97 7 -4.94 7 -8 7 C-8 5.35 -8 3.7 -8 2 C-7.34 1.67 -6.68 1.34 -6 1 C-5.67 1.99 -5.34 2.98 -5 4 C-4.01 4.33 -3.02 4.66 -2 5 C-1.34 3.35 -0.68 1.7 0 0 Z " fill="#17624E" transform="translate(127,91)"/>
<path d="M0 0 C0 0.99 0 1.98 0 3 C1.98 3 3.96 3 6 3 C6 3.66 6 4.32 6 5 C4.02 5 2.04 5 0 5 C-0.33 4.01 -0.66 3.02 -1 2 C-3.64 2.66 -6.28 3.32 -9 4 C-6.73455663 -1.01633889 -5.27613404 -1.24961069 0 0 Z " fill="#31514B" transform="translate(82,63)"/>
<path d="M0 0 C0.33 0 0.66 0 1 0 C1 2.31 1 4.62 1 7 C1.66 7.33 2.32 7.66 3 8 C2.01 8.99 1.02 9.98 0 11 C-0.66 10.34 -1.32 9.68 -2 9 C-4.06874034 8.3574765 -4.06874034 8.3574765 -6 8 C-6 7.01 -6 6.02 -6 5 C-5.34 5 -4.68 5 -4 5 C-3.67 4.01 -3.34 3.02 -3 2 C-2.34 2 -1.68 2 -1 2 C-0.67 1.34 -0.34 0.68 0 0 Z " fill="#1C5546" transform="translate(100,11)"/>
<path d="M0 0 C-2.39213251 1.38007645 -4.17739261 2.02642018 -6.9375 2.4375 C-10.22912757 3.04208466 -12.20706703 4.21562616 -15 6 C-15.66 6 -16.32 6 -17 6 C-17.33 6.66 -17.66 7.32 -18 8 C-18 7.01 -18 6.02 -18 5 C-17.34 5 -16.68 5 -16 5 C-16 4.34 -16 3.68 -16 3 C-10.21782606 -0.05498079 -6.4410036 -1.64451156 0 0 Z " fill="#145F4E" transform="translate(69,30)"/>
<path d="M0 0 C-0.99 0.495 -0.99 0.495 -2 1 C-2 1.99 -2 2.98 -2 4 C-2.66 4 -3.32 4 -4 4 C-4.33 4.66 -4.66 5.32 -5 6 C-5.99 5.67 -6.98 5.34 -8 5 C-8.33 5.66 -8.66 6.32 -9 7 C-9.99 7 -10.98 7 -12 7 C-12 6.34 -12 5.68 -12 5 C-11.34 5 -10.68 5 -10 5 C-10 4.34 -10 3.68 -10 3 C-6.58168085 0.4606772 -4.24223102 -0.3636198 0 0 Z " fill="#3B5D55" transform="translate(122,17)"/>
<path d="M0 0 C0.66 0.33 1.32 0.66 2 1 C2.40729228 3.32156597 2.74438677 5.6568787 3 8 C1.02 8 -0.96 8 -3 8 C-3.36923077 3.44615385 -3.36923077 3.44615385 -1.5 1.1875 C-1.005 0.795625 -0.51 0.40375 0 0 Z " fill="#0E6753" transform="translate(53,89)"/>
<path d="M0 0 C0.66 0 1.32 0 2 0 C2.66 2.97 3.32 5.94 4 9 C2.35 9 0.7 9 -1 9 C-1 8.01 -1 7.02 -1 6 C-1.66 5.34 -2.32 4.68 -3 4 C-2.34 4 -1.68 4 -1 4 C-0.67 2.68 -0.34 1.36 0 0 Z " fill="#166752" transform="translate(38,88)"/>
<path d="M0 0 C0.33 0.99 0.66 1.98 1 3 C1.66 3.33 2.32 3.66 3 4 C1.90716423 5.03295436 0.80029421 6.05107835 -0.3125 7.0625 C-0.92738281 7.63097656 -1.54226562 8.19945312 -2.17578125 8.78515625 C-2.77777344 9.18605469 -3.37976563 9.58695313 -4 10 C-4.99 9.67 -5.98 9.34 -7 9 C-6.34 8.01 -5.68 7.02 -5 6 C-5 5.01 -5 4.02 -5 3 C-4.360625 2.87625 -3.72125 2.7525 -3.0625 2.625 C-2.0415625 2.315625 -2.0415625 2.315625 -1 2 C-0.67 1.34 -0.34 0.68 0 0 Z " fill="#225043" transform="translate(142,41)"/>
<path d="M0 0 C2.64 0.33 5.28 0.66 8 1 C7.1875 3.4375 7.1875 3.4375 6 6 C5.01 6.33 4.02 6.66 3 7 C2.67 5.68 2.34 4.36 2 3 C0.68 3.33 -0.64 3.66 -2 4 C-1.34 2.68 -0.68 1.36 0 0 Z " fill="#275349" transform="translate(88,30)"/>
<path d="M0 0 C0.66 0.33 1.32 0.66 2 1 C1.835 1.78375 1.67 2.5675 1.5 3.375 C0.9376293 5.88208039 0.9376293 5.88208039 1 8 C0.34 8 -0.32 8 -1 8 C0.21044132 12.60742865 0.21044132 12.60742865 2 17 C1.34 17.66 0.68 18.32 0 19 C0 18.34 0 17.68 0 17 C-0.66 17 -1.32 17 -2 17 C-2.05398987 14.72942623 -2.09278742 12.45848712 -2.125 10.1875 C-2.14820312 8.92292969 -2.17140625 7.65835938 -2.1953125 6.35546875 C-2 3 -2 3 0 0 Z " fill="#1B3E39" transform="translate(92,40)"/>
<path d="M0 0 C2.31 0 4.62 0 7 0 C7 1.32 7 2.64 7 4 C6.360625 4.268125 5.72125 4.53625 5.0625 4.8125 C2.66868314 5.88667752 2.66868314 5.88667752 2 9 C-0.29013653 5.5647952 -0.17842973 4.014669 0 0 Z " fill="#245C4E" transform="translate(31,28)"/>
<path d="M0 0 C0.99 0 1.98 0 3 0 C3.05422947 1.4370809 3.09289723 2.87475462 3.125 4.3125 C3.14820313 5.11300781 3.17140625 5.91351563 3.1953125 6.73828125 C3 9 3 9 1 12 C-1.22923777 7.67265609 -0.92470553 4.71599818 0 0 Z " fill="#396E61" transform="translate(44,60)"/>
<path d="M0 0 C1.11375 0.4640625 1.11375 0.4640625 2.25 0.9375 C4.50692176 1.8094925 6.6450153 2.47667007 9 3 C8.67 3.66 8.34 4.32 8 5 C7.34 5 6.68 5 6 5 C5.67 5.99 5.34 6.98 5 8 C2.5 5.6875 2.5 5.6875 0 3 C0 2.01 0 1.02 0 0 Z " fill="#285F55" transform="translate(128,49)"/>
<path d="M0 0 C1.32 0.66 2.64 1.32 4 2 C3.67 2.99 3.34 3.98 3 5 C2.34 5 1.68 5 1 5 C0.34 6.32 -0.32 7.64 -1 9 C-1.99 8.67 -2.98 8.34 -4 8 C-3.34 6.35 -2.68 4.7 -2 3 C-1.34 3 -0.68 3 0 3 C0 2.01 0 1.02 0 0 Z " fill="#384E49" transform="translate(27,23)"/>
<path d="M0 0 C1.65 0 3.3 0 5 0 C5.33 1.98 5.66 3.96 6 6 C4.35 6.33 2.7 6.66 1 7 C0.67 4.69 0.34 2.38 0 0 Z " fill="#126653" transform="translate(21,90)"/>
<path d="M0 0 C0.99 0 1.98 0 3 0 C2.51421457 3.12290635 2.0013988 5.99580359 1 9 C-0.32 8.67 -1.64 8.34 -3 8 C-2.37240135 5.07120629 -1.41377341 2.63904371 0 0 Z " fill="#0F6851" transform="translate(94,88)"/>
<path d="M0 0 C2 3 2 3 1.625 6.1875 C1.41875 7.115625 1.2125 8.04375 1 9 C-0.32 9.33 -1.64 9.66 -3 10 C-2.125 4.25 -2.125 4.25 -1 2 C-1.99 1.67 -2.98 1.34 -4 1 C-2 0 -2 0 0 0 Z " fill="#0F5C4B" transform="translate(44,72)"/>
<path d="M0 0 C-2.67477931 2.67477931 -5.492975 3.6464114 -9 5 C-9.99 5 -10.98 5 -12 5 C-11 2 -11 2 -8.25 0.25 C-4.82103483 -1.06883276 -3.42681118 -1.10867421 0 0 Z " fill="#517F73" transform="translate(62,29)"/>
<path d="M0 0 C0.66 0 1.32 0 2 0 C2 0.66 2 1.32 2 2 C1.34 2 0.68 2 0 2 C2.35481867 4.72663215 4.5965118 5.86550393 8 7 C8.66 7 9.32 7 10 7 C9.67 7.99 9.34 8.98 9 10 C7.34739558 9.43613497 5.70298363 8.84821283 4.0625 8.25 C3.14597656 7.92515625 2.22945313 7.6003125 1.28515625 7.265625 C-1 6 -1 6 -1.94140625 3.984375 C-1.96074219 3.32953125 -1.98007813 2.6746875 -2 2 C-1.34 1.34 -0.68 0.68 0 0 Z " fill="#2F554C" transform="translate(106,25)"/>
<path d="M0 0 C1.65 0.33 3.3 0.66 5 1 C5 1.66 5 2.32 5 3 C7.31 3 9.62 3 12 3 C10 5 10 5 7.94140625 5.265625 C7.15636719 5.26046875 6.37132812 5.2553125 5.5625 5.25 C4.38880859 5.25773437 4.38880859 5.25773437 3.19140625 5.265625 C1 5 1 5 -2 3 C-1.01 2.67 -0.02 2.34 1 2 C0.67 1.34 0.34 0.68 0 0 Z " fill="#3F665B" transform="translate(139,99)"/>
<path d="M0 0 C1.32 0 2.64 0 4 0 C4.33 0.66 4.66 1.32 5 2 C5.99 2.33 6.98 2.66 8 3 C9.25 5.375 9.25 5.375 10 8 C9.67 8.99 9.34 9.98 9 11 C8.62875 10.278125 8.2575 9.55625 7.875 8.8125 C5.62065395 5.43098093 3.16303907 3.53043126 0 1 C0 0.67 0 0.34 0 0 Z " fill="#1E554B" transform="translate(114,39)"/>
<path d="M0 0 C2.475 0.495 2.475 0.495 5 1 C5.33 2.98 5.66 4.96 6 7 C3.03 6.505 3.03 6.505 0 6 C0 4.02 0 2.04 0 0 Z " fill="#116651" transform="translate(62,18)"/>
<path d="M0 0 C0.66 0.66 1.32 1.32 2 2 C1.01 2.33 0.02 2.66 -1 3 C-0.34 3.33 0.32 3.66 1 4 C1 4.99 1 5.98 1 7 C2.32 7.33 3.64 7.66 5 8 C5 8.33 5 8.66 5 9 C2.33333333 9 -0.33333333 9 -3 9 C-2.4140625 2.84765625 -2.4140625 2.84765625 -2 1 C-1.34 0.67 -0.68 0.34 0 0 Z " fill="#0D604C" transform="translate(136,88)"/>
<path d="M0 0 C0.66 0.33 1.32 0.66 2 1 C1.40072174 4.35595828 0.15377564 6.37801226 -2 9 C-2.99 8.01 -3.98 7.02 -5 6 C-5.33 6.66 -5.66 7.32 -6 8 C-6 7.01 -6 6.02 -6 5 C-5.01 5 -4.02 5 -3 5 C-3 3.68 -3 2.36 -3 1 C-2.01 0.67 -1.02 0.34 0 0 Z " fill="#166F59" transform="translate(79,68)"/>
<path d="M0 0 C0.33 0.66 0.66 1.32 1 2 C2.64363134 2.72159424 4.31050386 3.39351421 6 4 C6 4.66 6 5.32 6 6 C6.66 6 7.32 6 8 6 C7.67 7.32 7.34 8.64 7 10 C5.35 10.33 3.7 10.66 2 11 C2 10.34 2 9.68 2 9 C2.99 8.67 3.98 8.34 5 8 C3.7625 6.8553125 3.7625 6.8553125 2.5 5.6875 C0 3 0 3 0 0 Z " fill="#3A5F58" transform="translate(17,62)"/>
<path d="M0 0 C0.66 0 1.32 0 2 0 C2.33 2.97 2.66 5.94 3 9 C1.35 9.33 -0.3 9.66 -2 10 C-1.85950482 8.52031676 -1.71245174 7.04125484 -1.5625 5.5625 C-1.48128906 4.73878906 -1.40007812 3.91507812 -1.31640625 3.06640625 C-1 1 -1 1 0 0 Z " fill="#30453F" transform="translate(5,64)"/>
<path d="M0 0 C0.33 0 0.66 0 1 0 C0.609375 6.0546875 0.609375 6.0546875 0 8 C-2.87001954 10.05001396 -5.28956672 10.22677745 -8.75 10.125 C-9.54921875 10.10695313 -10.3484375 10.08890625 -11.171875 10.0703125 C-11.77515625 10.04710937 -12.3784375 10.02390625 -13 10 C-13 9.67 -13 9.34 -13 9 C-11.7625 8.67 -10.525 8.34 -9.25 8 C-8.20585938 7.7215625 -8.20585938 7.7215625 -7.140625 7.4375 C-5 7 -5 7 -1 7 C-0.67 4.69 -0.34 2.38 0 0 Z " fill="#165C4C" transform="translate(81,40)"/>
<path d="M0 0 C0.99 0.66 1.98 1.32 3 2 C2.01 4.97 1.02 7.94 0 11 C-2.09907691 6.80184617 -2.21812126 6.20805526 -1 2 C-0.67 1.34 -0.34 0.68 0 0 Z " fill="#334F4C" transform="translate(14,39)"/>
<path d="M0 0 C3.12290635 0.48578543 5.99580359 0.9986012 9 2 C9 2.66 9 3.32 9 4 C6.1875 4.625 6.1875 4.625 3 5 C2.01 4.34 1.02 3.68 0 3 C0 2.01 0 1.02 0 0 Z " fill="#3E5752" transform="translate(110,10)"/>
<path d="M0 0 C2.31 0 4.62 0 7 0 C6.01 0.33 5.02 0.66 4 1 C4.66 2.32 5.32 3.64 6 5 C3.66666667 5 1.33333333 5 -1 5 C-0.67 3.35 -0.34 1.7 0 0 Z " fill="#4D7067" transform="translate(78,5)"/>
<path d="M0 0 C0.99 0.33 1.98 0.66 3 1 C3.6875 3.0625 3.6875 3.0625 4 5 C3.01 4.67 2.02 4.34 1 4 C0.34 5.32 -0.32 6.64 -1 8 C-1.99 7.34 -2.98 6.68 -4 6 C-2.68 4.02 -1.36 2.04 0 0 Z " fill="#1B4038" transform="translate(108,84)"/>
<path d="M0 0 C2.78388975 1.70625501 3.85384206 2.47626739 4.75 5.6875 C4.8325 6.450625 4.915 7.21375 5 8 C3.02 7.01 1.04 6.02 -1 5 C-0.67 3.35 -0.34 1.7 0 0 Z " fill="#294F44" transform="translate(48,58)"/>
<path d="M0 0 C1.8125 0.1875 1.8125 0.1875 4 1 C5.75 3.5625 5.75 3.5625 7 6 C4.36 6.66 1.72 7.32 -1 8 C0 5 0 5 2 3 C1.34 2.01 0.68 1.02 0 0 Z " fill="#48685E" transform="translate(128,24)"/>
<path d="M0 0 C2.0625 0.4375 2.0625 0.4375 4 1 C4 3.31 4 5.62 4 8 C3.34 8 2.68 8 2 8 C1.67 6.35 1.34 4.7 1 3 C0.01 3.66 -0.98 4.32 -2 5 C-1.125 1.125 -1.125 1.125 0 0 Z " fill="#3E6A5F" transform="translate(99,10)"/>
<path d="M0 0 C0.33 0.66 0.66 1.32 1 2 C-0.32 2.33 -1.64 2.66 -3 3 C-2.01 3.33 -1.02 3.66 0 4 C-0.66 5.32 -1.32 6.64 -2 8 C-3.5 6.75 -3.5 6.75 -5 5 C-5 3.68 -5 2.36 -5 1 C-3.35 0.67 -1.7 0.34 0 0 Z " fill="#1B6C59" transform="translate(23,56)"/>
<path d="M0 0 C0.28875 0.763125 0.5775 1.52625 0.875 2.3125 C1.96269013 5.15029308 1.96269013 5.15029308 4 8 C1.69 7.34 -0.62 6.68 -3 6 C-2.67 5.01 -2.34 4.02 -2 3 C-2.99 2.67 -3.98 2.34 -5 2 C-2 0 -2 0 0 0 Z " fill="#1B5346" transform="translate(18,57)"/>
<path d="M0 0 C3.23356015 1.21258505 4.00856305 2.01284458 6 5 C4.35 5.66 2.7 6.32 1 7 C0.814375 6.071875 0.814375 6.071875 0.625 5.125 C0.12802644 2.80879168 0.12802644 2.80879168 -2 1 C-1.34 0.67 -0.68 0.34 0 0 Z " fill="#3C6859" transform="translate(32,43)"/>
<path d="M0 0 C1.02852708 3.08558124 1 4.77356651 1 8 C0.01 7.67 -0.98 7.34 -2 7 C-2 6.01 -2 5.02 -2 4 C-2.99 3.67 -3.98 3.34 -5 3 C-3.35 2.01 -1.7 1.02 0 0 Z " fill="#2D4F46" transform="translate(61,5)"/>
<path d="M0 0 C1.8871875 0.0309375 1.8871875 0.0309375 3.8125 0.0625 C4.1425 1.0525 4.4725 2.0425 4.8125 3.0625 C3.925625 2.876875 3.03875 2.69125 2.125 2.5 C-1.03928811 2.08207516 -3.13589642 2.25472258 -6.1875 3.0625 C-6.5175 2.4025 -6.8475 1.7425 -7.1875 1.0625 C-4.43671116 0.14557039 -2.82801087 -0.04636083 0 0 Z " fill="#29584B" transform="translate(41.1875,96.9375)"/>
<path d="M0 0 C0.66 0.66 1.32 1.32 2 2 C2.66 1.34 3.32 0.68 4 0 C4.99 0.33 5.98 0.66 7 1 C5.515 3.475 5.515 3.475 4 6 C2.68 5.67 1.36 5.34 0 5 C0 3.35 0 1.7 0 0 Z " fill="#0B5844" transform="translate(121,90)"/>
<path d="M0 0 C0.33 0.99 0.66 1.98 1 3 C2.65 3.33 4.3 3.66 6 4 C6.33 4.99 6.66 5.98 7 7 C3.30581799 7 1.22163822 5.71820705 -2 4 C-2 3.01 -2 2.02 -2 1 C-1.34 0.67 -0.68 0.34 0 0 Z " fill="#206957" transform="translate(137,90)"/>
<path d="M0 0 C0.66 0 1.32 0 2 0 C2.33 0.99 2.66 1.98 3 3 C5.00016466 4.20882096 5.00016466 4.20882096 7 5 C6.01 5.33 5.02 5.66 4 6 C4 6.66 4 7.32 4 8 C3.01 8 2.02 8 1 8 C0.67 5.36 0.34 2.72 0 0 Z " fill="#245A4D" transform="translate(135,62)"/>
<path d="M0 0 C4.75 0.75 4.75 0.75 7 3 C6.01 3.495 6.01 3.495 5 4 C4.01 5.485 4.01 5.485 3 7 C0 2.25 0 2.25 0 0 Z " fill="#13614D" transform="translate(46,49)"/>
<path d="M0 0 C0.99 0.33 1.98 0.66 3 1 C3.33 1.99 3.66 2.98 4 4 C3.01 5.485 3.01 5.485 2 7 C1.01 6.67 0.02 6.34 -1 6 C-0.67 4.02 -0.34 2.04 0 0 Z " fill="#096B50" transform="translate(38,33)"/>
<path d="M0 0 C0.33 0.66 0.66 1.32 1 2 C0.01 2.495 0.01 2.495 -1 3 C-1 3.66 -1 4.32 -1 5 C-0.34 5.33 0.32 5.66 1 6 C0.67 6.66 0.34 7.32 0 8 C-1.65 7.01 -3.3 6.02 -5 5 C-4.1875 3.0625 -4.1875 3.0625 -3 1 C-2.01 0.67 -1.02 0.34 0 0 Z " fill="#244440" transform="translate(91,59)"/>
<path d="M0 0 C0.66 0.66 1.32 1.32 2 2 C0.63016497 5.16115776 0.0109362 5.9927092 -3 8 C-4 5 -4 5 -3 2 C-2.01 1.34 -1.02 0.68 0 0 Z " fill="#216558" transform="translate(85,33)"/>
<path d="M0 0 C3.3 0 6.6 0 10 0 C8.68 0.33 7.36 0.66 6 1 C6 1.66 6 2.32 6 3 C4.02 3 2.04 3 0 3 C0 2.01 0 1.02 0 0 Z " fill="#2C554F" transform="translate(19,101)"/>
<path d="M0 0 C2.64 0.33 5.28 0.66 8 1 C8.33 1.99 8.66 2.98 9 4 C6.03 3.67 3.06 3.34 0 3 C0 2.01 0 1.02 0 0 Z " fill="#186351" transform="translate(57,79)"/>
<path d="M0 0 C0.99 0.33 1.98 0.66 3 1 C3.33333333 2.33333333 3.66666667 3.66666667 4 5 C4.99 5.33 5.98 5.66 7 6 C5.35 6.33 3.7 6.66 2 7 C0 4 0 4 0 0 Z " fill="#427167" transform="translate(46,29)"/>
<path d="M0 0 C0.99 0.33 1.98 0.66 3 1 C3 2.32 3 3.64 3 5 C1.35 4.67 -0.3 4.34 -2 4 C-2 3.01 -2 2.02 -2 1 C-1.34 0.67 -0.68 0.34 0 0 Z " fill="#0C6A52" transform="translate(96,19)"/>
<path d="M0 0 C2.16874252 0.50603992 3.99967627 0.99983813 6 2 C5.67 2.66 5.34 3.32 5 4 C4.34 3.67 3.68 3.34 3 3 C3 3.99 3 4.98 3 6 C1.35 5.67 -0.3 5.34 -2 5 C-0.68 3.68 0.64 2.36 2 1 C1.34 0.67 0.68 0.34 0 0 Z " fill="#48635E" transform="translate(16,98)"/>
<path d="M0 0 C0.66 0.66 1.32 1.32 2 2 C1.67 2.99 1.34 3.98 1 5 C2.65 4.67 4.3 4.34 6 4 C6 4.66 6 5.32 6 6 C4.35 6 2.7 6 1 6 C1 6.66 1 7.32 1 8 C0.01 7.67 -0.98 7.34 -2 7 C-1.34 4.69 -0.68 2.38 0 0 Z " fill="#185D4B" transform="translate(21,92)"/>
<path d="M0 0 C0.66 0 1.32 0 2 0 C3.1577506 3.47325181 3.06866652 6.36067448 3 10 C2.01 9.34 1.02 8.68 0 8 C-0.40843923 5.28796348 -0.13336867 2.7562858 0 0 Z " fill="#2B4B43" transform="translate(3,82)"/>
<path d="M0 0 C2.35333796 4.70667591 2.17102038 6.8693886 2 12 C1.01 12.33 0.02 12.66 -1 13 C-0.67 8.71 -0.34 4.42 0 0 Z " fill="#2F4443" transform="translate(157,71)"/>
<path d="M0 0 C0.93065133 2.60582371 1.14917407 3.64198224 0.0625 6.25 C-0.4634375 7.11625 -0.4634375 7.11625 -1 8 C-0.34 8 0.32 8 1 8 C1.33 7.34 1.66 6.68 2 6 C2 7.65 2 9.3 2 11 C1.67 10.34 1.34 9.68 1 9 C0.01 9 -0.98 9 -2 9 C-2.25 3.375 -2.25 3.375 0 0 Z " fill="#166451" transform="translate(28,72)"/>
<path d="M0 0 C0.99 0.495 0.99 0.495 2 1 C2 1.66 2 2.32 2 3 C2.66 3 3.32 3 4 3 C4 3.66 4 4.32 4 5 C4.66 5 5.32 5 6 5 C5.67 5.99 5.34 6.98 5 8 C4.34 7.67 3.68 7.34 3 7 C3 6.34 3 5.68 3 5 C2.01 5 1.02 5 0 5 C0 3.35 0 1.7 0 0 Z " fill="#1C584C" transform="translate(54,69)"/>
<path d="M0 0 C0.99 0.33 1.98 0.66 3 1 C3.33 3.64 3.66 6.28 4 9 C1.24338912 6.51015791 -0.60746455 4.79450934 -1 1 C-0.67 0.67 -0.34 0.34 0 0 Z " fill="#354F46" transform="translate(65,65)"/>
<path d="M0 0 C0.33 0.99 0.66 1.98 1 3 C-1.8125 3.625 -1.8125 3.625 -5 4 C-5.99 3.34 -6.98 2.68 -8 2 C-4.91190305 0.23537317 -3.76687864 0 0 0 Z " fill="#669A8F" transform="translate(81,65)"/>
<path d="M0 0 C2.50037734 2.17424117 3.43628586 3.73045798 4 7 C3.01 7.33 2.02 7.66 1 8 C0.34 7.67 -0.32 7.34 -1 7 C-1 6.01 -1 5.02 -1 4 C-0.34 4 0.32 4 1 4 C0.67 2.68 0.34 1.36 0 0 Z " fill="#385C57" transform="translate(144,37)"/>
<path d="M0 0 C0.66 0.33 1.32 0.66 2 1 C0.68 2.65 -0.64 4.3 -2 6 C-1.01 7.485 -1.01 7.485 0 9 C-0.99 9.495 -0.99 9.495 -2 10 C-2.66 9.67 -3.32 9.34 -4 9 C-3.46930939 5.17902761 -2.50298434 2.93828597 0 0 Z " fill="#3E655A" transform="translate(94,17)"/>
<path d="M0 0 C0.0825 0.5775 0.165 1.155 0.25 1.75 C1.20531013 4.6159304 2.78469173 5.9990764 5 8 C2 9 2 9 -1 8 C-1.125 2.25 -1.125 2.25 0 0 Z " fill="#1C5949" transform="translate(133,90)"/>
<path d="M0 0 C0.95465783 2.16967689 1.14401212 3.56328793 0.3984375 5.82421875 C-0.35870385 7.5684743 -1.17609198 9.28627131 -2 11 C-2.33 11 -2.66 11 -3 11 C-3.32613618 6.32538149 -2.70582788 3.83325617 0 0 Z " fill="#1F4B40" transform="translate(93,85)"/>
<path d="M0 0 C1.32 0 2.64 0 4 0 C4 0.99 4 1.98 4 3 C4.66 3.33 5.32 3.66 6 4 C6 4.66 6 5.32 6 6 C3.13275314 5.42655063 2.1385485 5.1385485 0 3 C0 2.01 0 1.02 0 0 Z " fill="#2D5A50" transform="translate(64,84)"/>
<path d="M0 0 C-1.3125 1.5 -1.3125 1.5 -3 3 C-3.99 3 -4.98 3 -6 3 C-6.33 3.99 -6.66 4.98 -7 6 C-7.33 4.68 -7.66 3.36 -8 2 C-4.77208445 -0.1519437 -3.71599191 -0.20086443 0 0 Z " fill="#1F3F3B" transform="translate(128,83)"/>
<path d="M0 0 C0.33 0 0.66 0 1 0 C1 2.64 1 5.28 1 8 C-0.65 8 -2.3 8 -4 8 C-3.67 6.68 -3.34 5.36 -3 4 C-2.34 4.33 -1.68 4.66 -1 5 C-0.67 3.35 -0.34 1.7 0 0 Z " fill="#337366" transform="translate(97,60)"/>
<path d="M0 0 C0.66 0.33 1.32 0.66 2 1 C2 1.66 2 2.32 2 3 C1.34 3 0.68 3 0 3 C-0.33 4.32 -0.66 5.64 -1 7 C-2.65 7 -4.3 7 -6 7 C-5 5 -5 5 -2 4 C-0.79117904 1.99983534 -0.79117904 1.99983534 0 0 Z " fill="#166250" transform="translate(143,59)"/>
<path d="M0 0 C2 1 4 2 6 3 C5.01 4.485 5.01 4.485 4 6 C2.68 5.34 1.36 4.68 0 4 C0 2.68 0 1.36 0 0 Z " fill="#0E624A" transform="translate(26,47)"/>
<path d="M0 0 C-1.32 1.32 -2.64 2.64 -4 4 C-4.33 3.34 -4.66 2.68 -5 2 C-4.67 1.34 -4.34 0.68 -4 0 C-4.99 0.33 -5.98 0.66 -7 1 C-7 0.34 -7 -0.32 -7 -1 C-3.51418144 -2.2020064 -3.32007656 -2.21338437 0 0 Z " fill="#126D55" transform="translate(138,47)"/>
<path d="M0 0 C1.875 0.3125 1.875 0.3125 4 1 C6 4 6 4 6 7 C2.58841744 5.86280581 1.88145399 4.95657056 0 2 C0 1.34 0 0.68 0 0 Z " fill="#2F4840" transform="translate(132,25)"/>
<path d="M0 0 C0.66 0 1.32 0 2 0 C2.66 1.65 3.32 3.3 4 5 C2.68 4.67 1.36 4.34 0 4 C-0.33 4.99 -0.66 5.98 -1 7 C-1 6.34 -1 5.68 -1 5 C-1.66 4.67 -2.32 4.34 -3 4 C-1.625 2 -1.625 2 0 0 Z " fill="#4A675F" transform="translate(31,24)"/>
<path d="M0 0 C0.99 0 1.98 0 3 0 C2.67 1.65 2.34 3.3 2 5 C0.35 4.67 -1.3 4.34 -3 4 C-2.34 3.67 -1.68 3.34 -1 3 C-0.67 2.01 -0.34 1.02 0 0 Z " fill="#0E6E53" transform="translate(112,24)"/>
<path d="M0 0 C3.375 -0.1875 3.375 -0.1875 7 0 C7.66 0.99 8.32 1.98 9 3 C5.7 2.67 2.4 2.34 -1 2 C-0.67 1.34 -0.34 0.68 0 0 Z " fill="#396457" transform="translate(79,3)"/>
<path d="M0 0 C0.99 0.33 1.98 0.66 3 1 C2.34 2.65 1.68 4.3 1 6 C0.01 5.67 -0.98 5.34 -2 5 C-1.34 3.35 -0.68 1.7 0 0 Z " fill="#2D6558" transform="translate(27,59)"/>
<path d="M0 0 C0 0.66 0 1.32 0 2 C-2.97 3.32 -5.94 4.64 -9 6 C-9 5.34 -9 4.68 -9 4 C-5.69649386 0.88002198 -4.67590167 0 0 0 Z " fill="#1D5D4F" transform="translate(57,27)"/>
<path d="M0 0 C0.99 0 1.98 0 3 0 C3 0.66 3 1.32 3 2 C-1.47058824 6 -1.47058824 6 -4 6 C-2.84826645 3.53199953 -1.95216435 1.95216435 0 0 Z " fill="#4D6864" transform="translate(33,18)"/>
<path d="M0 0 C1.95418308 2.93127462 2.64700993 4.55834679 3 8 C2.34 8.66 1.68 9.32 1 10 C0.63720544 8.71073008 0.28503302 7.41846728 -0.0625 6.125 C-0.35833984 5.04605469 -0.35833984 5.04605469 -0.66015625 3.9453125 C-1 2 -1 2 0 0 Z " fill="#1A463D" transform="translate(41,88)"/>
<path d="M0 0 C1.98 0.495 1.98 0.495 4 1 C2.42105792 3.36841312 1.0245738 5.06745228 -1 7 C-0.67 4.69 -0.34 2.38 0 0 Z " fill="#206050" transform="translate(123,87)"/>
<path d="M0 0 C2.97 0.495 2.97 0.495 6 1 C5.67 2.32 5.34 3.64 5 5 C4.01 5 3.02 5 2 5 C1.34 3.35 0.68 1.7 0 0 Z " fill="#156B52" transform="translate(138,75)"/>
<path d="M0 0 C0.66 2.31 1.32 4.62 2 7 C0.35 6.67 -1.3 6.34 -3 6 C-3 5.01 -3 4.02 -3 3 C-3.33 2.34 -3.66 1.68 -4 1 C-1 0 -1 0 0 0 Z " fill="#156B58" transform="translate(102,59)"/>
<path d="M0 0 C5.53846154 -0.36923077 5.53846154 -0.36923077 7.875 1.5 C8.24625 1.995 8.6175 2.49 9 3 C2.84765625 2.4140625 2.84765625 2.4140625 1 2 C0.67 1.34 0.34 0.68 0 0 Z " fill="#2E6359" transform="translate(20,41)"/>
<path d="M0 0 C0.99 0.495 0.99 0.495 2 1 C2 1.99 2 2.98 2 4 C2.66 4 3.32 4 4 4 C4 4.99 4 5.98 4 7 C3.01 7 2.02 7 1 7 C0.67 4.69 0.34 2.38 0 0 Z " fill="#2F534D" transform="translate(34,37)"/>
<path d="M0 0 C2 3 2 3 1.625 6.1875 C1.41875 7.115625 1.2125 8.04375 1 9 C0.67 8.01 0.34 7.02 0 6 C-0.66 5.67 -1.32 5.34 -2 5 C-1.34 3.35 -0.68 1.7 0 0 Z " fill="#225049" transform="translate(75,15)"/>
<path d="M0 0 C1 3 1 3 1 5 C1.66 5 2.32 5 3 5 C2.67 5.99 2.34 6.98 2 8 C0 6.1875 0 6.1875 -2 4 C-2 3.01 -2 2.02 -2 1 C-1.34 0.67 -0.68 0.34 0 0 Z " fill="#4D6B62" transform="translate(47,13)"/>
<path d="M0 0 C0.99 0.33 1.98 0.66 3 1 C4.1875 4.5625 4.1875 4.5625 5 8 C4.01 7.67 3.02 7.34 2 7 C0.8125 3.4375 0.8125 3.4375 0 0 Z " fill="#376056" transform="translate(81,9)"/>
<path d="" fill="#000000" transform="translate(0,0)"/>
</svg>
